STARTFONT 2.3
FONT -FontForge-Righteous-Book-R-Normal--18-180-72-72-P-96-ISO10646-1
SIZE 18 72 72  4
FONTBOUNDINGBOX 23 23 -3 -5
COMMENT "Generated by fontforge, http://fontforge.sourceforge.net"
COMMENT "Copyright (c) 2011 by Brian J. Bonislawsky DBA Astigmatic (AOETI) (astigma@astigmatic.com), with ReservedFont Name "Righteous""
STARTPROPERTIES 40
FOUNDRY "FontForge"
FAMILY_NAME "Righteous"
WEIGHT_NAME "Book"
SLANT "R"
SETWIDTH_NAME "Normal"
ADD_STYLE_NAME ""
PIXEL_SIZE 18
POINT_SIZE 180
RESOLUTION_X 72
RESOLUTION_Y 72
SPACING "P"
AVERAGE_WIDTH 96
CHARSET_REGISTRY "ISO10646"
CHARSET_ENCODING "1"
FONTNAME_REGISTRY ""
CHARSET_COLLECTIONS "ISO8859-2 ISO8859-9 ISO8859-4 ISO10646-1"
BITS_PER_PIXEL 4
FONT_NAME "Righteous-Regular"
FACE_NAME "Righteous"
COPYRIGHT "Copyright (c) 2011 by Brian J. Bonislawsky DBA Astigmatic (AOETI) (astigma@astigmatic.com), with ReservedFont Name "Righteous""
FONT_VERSION "1.000"
FONT_ASCENT 14
FONT_DESCENT 4
UNDERLINE_POSITION -2
UNDERLINE_THICKNESS 1
X_HEIGHT 9
CAP_HEIGHT 12
RAW_ASCENT 799
RAW_DESCENT 200
NORM_SPACE 5
RELATIVE_WEIGHT 40
RELATIVE_SETWIDTH 50
SUPERSCRIPT_X 0
SUPERSCRIPT_Y 8
SUPERSCRIPT_SIZE 11
SUBSCRIPT_X 0
SUBSCRIPT_Y 2
SUBSCRIPT_SIZE 11
AVG_LOWERCASE_WIDTH 94
AVG_UPPERCASE_WIDTH 114
ENDPROPERTIES
CHARS 372
STARTCHAR space
ENCODING 32
SWIDTH 279 0
DWIDTH 5 0
BBX 1 1 0 0
BITMAP
00
ENDCHAR
STARTCHAR exclam
ENCODING 33
SWIDTH 274 0
DWIDTH 5 0
BBX 3 14 1 -1
BITMAP
9990
FFE0
EFD0
DFC0
CFB0
BFB0
AFA0
AF90
9F80
7D60
1510
DFC0
EFD0
3830
ENDCHAR
STARTCHAR quotedbl
ENCODING 34
SWIDTH 409 0
DWIDTH 7 0
BBX 7 5 0 8
BITMAP
19949940
0FF5EF60
0EF3DF40
0DF2CF30
04504510
ENDCHAR
STARTCHAR numbersign
ENCODING 35
SWIDTH 561 0
DWIDTH 10 0
BBX 10 9 0 2
BITMAP
0003642650
000AF67F90
01AEFBDFC4
05FFFFFFF3
019F96FC20
07DFABFC40
3FFFFFFF50
28FC7FE510
08F76FA000
ENDCHAR
STARTCHAR dollar
ENCODING 36
SWIDTH 458 0
DWIDTH 8 0
BBX 8 13 0 0
BITMAP
00059000
0009F000
001AF330
07FFFFF1
1FFBBBB1
2FD55410
0BFFFFD2
01699BF7
29999CF7
3FFFFFC1
144BF400
0009F000
0009F000
ENDCHAR
STARTCHAR percent
ENCODING 37
SWIDTH 685 0
DWIDTH 12 0
BBX 12 14 0 -1
BITMAP
03AB60004940
1DFEF400DE10
4F72F907F700
5F50FA1ED000
3FA5F98F5000
0CFFF5FC0000
01783AF41200
00003FB8FFB0
0000BF5FCAF7
0004F95F51FA
000DE25F51FA
006F802FCAF7
01EE1008FFB0
000000001200
ENDCHAR
STARTCHAR ampersand
ENCODING 38
SWIDTH 485 0
DWIDTH 9 0
BBX 7 13 1 0
BITMAP
00087000
000DB000
09EFFFA0
8FFDDD90
DF200000
CF633100
6FFFF300
9FDBB200
DF100000
CF855530
4FFFFFA0
027ED850
000DB000
ENDCHAR
STARTCHAR quotesingle
ENCODING 39
SWIDTH 238 0
DWIDTH 4 0
BBX 4 5 0 8
BITMAP
1994
0FF5
0EF3
0DF2
0450
ENDCHAR
STARTCHAR parenleft
ENCODING 40
SWIDTH 351 0
DWIDTH 6 0
BBX 6 17 0 -2
BITMAP
000565
005FF7
01EFC0
06FF40
0CFD00
1FF900
3FF500
4FF400
5FF300
4FF400
3FF600
0FF900
0BFE00
06FF50
01EFC0
006FF5
000ACA
ENDCHAR
STARTCHAR parenright
ENCODING 41
SWIDTH 351 0
DWIDTH 6 0
BBX 6 17 0 -2
BITMAP
466100
3FFA00
08FF40
01EFB0
009FF1
004FF5
001FF8
000EF9
000DFA
000EF9
001FF7
005FF4
009FF1
01EFA0
07FF40
1EFB00
6CC200
ENDCHAR
STARTCHAR asterisk
ENCODING 42
SWIDTH 589 0
DWIDTH 11 0
BBX 10 10 0 5
BITMAP
0000EE8000
0000FF8000
09C4FF97E4
2FFFFFFFFB
06EFFFFFC4
001DFFF700
007FFFFE20
04FFD5FFD1
00AE308F60
0003000300
ENDCHAR
STARTCHAR plus
ENCODING 43
SWIDTH 485 0
DWIDTH 9 0
BBX 9 9 0 2
BITMAP
0002210000
000CF90000
000CF90000
388EFC8810
5FFFFFFF10
4CCFFECC10
000CF90000
000CF90000
0003420000
ENDCHAR
STARTCHAR comma
ENCODING 44
SWIDTH 264 0
DWIDTH 5 0
BBX 4 6 0 -3
BITMAP
0251
1EFA
1FFD
04F9
03F3
0020
ENDCHAR
STARTCHAR hyphen
ENCODING 45
SWIDTH 528 0
DWIDTH 10 0
BBX 8 3 1 5
BITMAP
88888884
EFFFFFF7
CCCCCCC6
ENDCHAR
STARTCHAR period
ENCODING 46
SWIDTH 263 0
DWIDTH 5 0
BBX 4 4 0 -1
BITMAP
0251
1EFA
1FFC
0482
ENDCHAR
STARTCHAR slash
ENCODING 47
SWIDTH 490 0
DWIDTH 9 0
BBX 9 13 0 0
BITMAP
0000049920
00000BFD00
00002FF700
00009FE100
0001EF9000
0006FF3000
000CFC0000
003FF60000
00AFE00000
01FF800000
07FF200000
0DFB000000
4FF4000000
ENDCHAR
STARTCHAR zero
ENCODING 48
SWIDTH 642 0
DWIDTH 12 0
BBX 11 14 0 -1
BITMAP
00049BB71000
009FFFFFE300
05FFD9AFFD00
0CFD1006FF50
1FF70000DF90
3FF40000AFB0
4FF300009FC0
3FF300009FB0
2FF50000CFA0
0EFA0002FF70
08FF835CFF20
01DFFFFFF700
001AFFFD6000
000012200000
ENDCHAR
STARTCHAR one
ENCODING 49
SWIDTH 317 0
DWIDTH 6 0
BBX 5 13 0 0
BITMAP
399940
5FFF70
4EFF70
01FF70
01FF70
01FF70
01FF70
01FF70
01FF70
01FF70
01FF70
01FF70
01FF70
ENDCHAR
STARTCHAR two
ENCODING 50
SWIDTH 570 0
DWIDTH 10 0
BBX 10 13 0 0
BITMAP
0699998200
0AFFFFFF60
0AEEEEFFF2
0000003FF8
0000001FF8
000688CFF5
02DFFFFFB0
0BFFFFD800
2FF9000000
3FF5000000
3FFA888882
3FFFFFFFF4
3FFFFFFFF4
ENDCHAR
STARTCHAR three
ENCODING 51
SWIDTH 586 0
DWIDTH 11 0
BBX 10 13 0 0
BITMAP
1999998300
2FFFFFFF70
2EEEEEFFF4
0000002EF9
0000000EFA
004888BFF6
008FFFFFD0
007FFFFFF3
0000003FF9
0000000DFA
188888BFF7
2FFFFFFFC0
2FFFFFE910
ENDCHAR
STARTCHAR four
ENCODING 52
SWIDTH 630 0
DWIDTH 11 0
BBX 11 13 0 0
BITMAP
019940000000
04FF40155200
06FF203FF500
08FF003FF500
0AFD003FF500
0CFB003FF500
0EF8003FF500
1FF6003FF500
3FFFFFFFFF90
5FFFFFFFFF90
3777779FFA40
0000003FF500
0000003FF500
ENDCHAR
STARTCHAR five
ENCODING 53
SWIDTH 585 0
DWIDTH 11 0
BBX 10 13 0 0
BITMAP
0499999994
07FFFFFFF6
09FFEEEEE5
0BFC000000
0CFB000000
0EFFEED910
0FFFFFFFD1
199999BFF9
0000000BFD
0000000BFD
188888AFFA
2FFFFFFFE2
2FFFFFEA20
ENDCHAR
STARTCHAR six
ENCODING 54
SWIDTH 615 0
DWIDTH 11 0
BBX 11 14 0 -1
BITMAP
000199920000
001CFE400000
009FF4000000
03FF95520000
09FFFFFF9000
0EFFFFFFF900
2FFF502CFF20
4FF90004FF60
5FF70002FF60
3FFA0005FF50
0CFF836EFE10
03FFFFFFF600
003DFFFE6000
000035410000
ENDCHAR
STARTCHAR seven
ENCODING 55
SWIDTH 516 0
DWIDTH 9 0
BBX 10 13 0 0
BITMAP
5999999991
8FFFFFFFD0
8EEEEEFF80
000006FF30
00000BFD00
00002FF800
00007FF200
0000CFC000
0002FF7000
0008FF2000
000DFC0000
003FF70000
009FF20000
ENDCHAR
STARTCHAR eight
ENCODING 56
SWIDTH 618 0
DWIDTH 11 0
BBX 11 14 0 -1
BITMAP
0007DFD81000
00BFFFFFD100
06FFB6AFF800
09FE000CFB00
07FF201DF900
01EFEBEFF300
01CFFFFFD200
0CFF958EFD00
3FF60004FF50
5FF30001FF70
2FFA1009FF40
09FFECEFFB00
007EFFFE8100
000035410000
ENDCHAR
STARTCHAR nine
ENCODING 57
SWIDTH 616 0
DWIDTH 11 0
BBX 11 13 0 0
BITMAP
0018DEC71000
01DFFFFFC100
0BFFC9DFFA00
2FFA001CFF20
5FF30006FF50
5FF30006FF50
3FF9000CFF40
0CFFC9DFFF20
02EFFFFFFC00
0018BBAFF700
000001DFD100
00000BFF4000
0002CFF50000
ENDCHAR
STARTCHAR colon
ENCODING 58
SWIDTH 276 0
DWIDTH 5 0
BBX 3 9 1 -1
BITMAP
1610
CFC0
DFD0
3830
0000
1510
CFC0
EFD0
3830
ENDCHAR
STARTCHAR semicolon
ENCODING 59
SWIDTH 276 0
DWIDTH 5 0
BBX 3 11 1 -3
BITMAP
1610
CFC0
DFD0
3830
0000
1510
CFC0
EFE0
3EC0
2F50
0200
ENDCHAR
STARTCHAR less
ENCODING 60
SWIDTH 478 0
DWIDTH 9 0
BBX 8 12 0 1
BITMAP
00000100
00001C90
0001CFF7
001CFFB0
01BFFB00
0BFFB000
3EFF8000
03EFF900
003EFFA0
0002DFF7
00002DA0
00000110
ENDCHAR
STARTCHAR equal
ENCODING 61
SWIDTH 539 0
DWIDTH 10 0
BBX 8 7 1 3
BITMAP
55555553
DFFFFFF8
DFFFFFF8
00000000
ABBBBBB6
DFFFFFF8
8AAAAAA5
ENDCHAR
STARTCHAR greater
ENCODING 62
SWIDTH 478 0
DWIDTH 9 0
BBX 7 12 1 1
BITMAP
01000000
2D800000
DFF70000
3EFF6000
03EFF600
003EFF50
001DFFB0
02DFFB00
3EFFA000
DFF90000
3E800000
02000000
ENDCHAR
STARTCHAR question
ENCODING 63
SWIDTH 603 0
DWIDTH 11 0
BBX 11 14 0 -1
BITMAP
399999971000
4FFFFFFFD200
4EEEEEEFFC00
00000008FF20
00000005FF30
0000169EFE10
0002DFFFF600
000AFFFC5000
000FF9000000
002DD5000000
000340000000
003FF7000000
004FF8000000
000681000000
ENDCHAR
STARTCHAR at
ENCODING 64
SWIDTH 629 0
DWIDTH 11 0
BBX 11 11 0 -1
BITMAP
00038AA60000
009FFFFFD200
07FC302AFD00
0EE29DEE8F60
3F87FCFE1FA0
4F69F2CE0EB0
2F95FFFFEF80
0BF448888820
02EF96500000
002CFFE00000
000025400000
ENDCHAR
STARTCHAR A
ENCODING 65
SWIDTH 673 0
DWIDTH 12 0
BBX 11 13 1 0
BITMAP
000588610000
03DFFFFE4000
1EFFFFFFE200
8FF8107FFA00
DFC0000AFF00
EF800006FF10
FF800006FF20
FF800006FF20
FFFFFFFFFF20
FFFFFFFFFF20
FFC7777AFF20
FF800006FF20
FF800006FF20
ENDCHAR
STARTCHAR B
ENCODING 66
SWIDTH 666 0
DWIDTH 12 0
BBX 11 13 1 0
BITMAP
899999971000
CFFFFFFFD200
CFFEEEEFFC00
CFA00008FF20
CFA00006FF30
CFD8889EFD00
CFFFFFFFF400
CFFFFFFFFA00
CFA00009FF20
CFA00005FF30
CFD8888EFE10
CFFFFFFFF600
CFFFFFFD5000
ENDCHAR
STARTCHAR C
ENCODING 67
SWIDTH 640 0
DWIDTH 12 0
BBX 12 14 0 -1
BITMAP
000038BB9400
001BFFFFFFB1
01DFFFCCFFC0
09FFB1001A30
1FFB00000000
5FF300000000
7FF000000000
6FF100000000
4FF700000000
0DFE30000300
04FFF9558E70
006FFFFFFFE1
0003BFFFFB40
000001331000
ENDCHAR
STARTCHAR D
ENCODING 68
SWIDTH 653 0
DWIDTH 12 0
BBX 11 13 1 0
BITMAP
899986100000
CFFFFFE70000
CFFEFFFF9000
CFB004DFF500
CFB0002EFC00
CFB00007FF10
CFB00004FF30
CFB00005FF20
CFB0000CFE00
CFB0009FF800
CFD89DFFD100
CFFFFFFC2000
CFFFEC610000
ENDCHAR
STARTCHAR E
ENCODING 69
SWIDTH 578 0
DWIDTH 10 0
BBX 9 13 1 0
BITMAP
8999999970
CFFFFFFFC0
CFFEEEEEB0
CFA0000000
CFA0000000
CFD8887000
CFFFFFC000
CFFFFFC000
CFA0000000
CFA0000000
CFD8888860
CFFFFFFFC0
CFFFFFFFC0
ENDCHAR
STARTCHAR F
ENCODING 70
SWIDTH 562 0
DWIDTH 10 0
BBX 9 13 1 0
BITMAP
8999999990
CFFFFFFFF0
CFFEEEEEE0
CFA0000000
CFA0000000
CFD8884000
CFFFFF7000
CFFFFF7000
CFA0000000
CFA0000000
CFA0000000
CFA0000000
CFA0000000
ENDCHAR
STARTCHAR G
ENCODING 71
SWIDTH 665 0
DWIDTH 12 0
BBX 12 14 0 -1
BITMAP
000038AB8300
001AFFFFFFA1
01CFFFCCFFC0
09FFB2002B30
1FFC00000000
5FF300000000
7FF000001441
6FF100004FF3
4FF700004FF3
0DFE30004FF3
04FFF8449FF3
006FFFFFFFF2
0003BFFFFB30
000001331000
ENDCHAR
STARTCHAR H
ENCODING 72
SWIDTH 689 0
DWIDTH 12 0
BBX 11 13 1 0
BITMAP
896000029920
CFA00004FF40
CFA00004FF40
CFA00004FF40
CFA00004FF40
CFD8888AFF40
CFFFFFFFFF40
CFFFFFFFFF40
CFA00004FF40
CFA00004FF40
CFA00004FF40
CFA00004FF40
CFA00004FF40
ENDCHAR
STARTCHAR I
ENCODING 73
SWIDTH 270 0
DWIDTH 5 0
BBX 3 13 1 0
BITMAP
8960
CFA0
CFA0
CFA0
CFA0
CFA0
CFA0
CFA0
CFA0
CFA0
CFA0
CFA0
CFA0
ENDCHAR
STARTCHAR J
ENCODING 74
SWIDTH 416 0
DWIDTH 8 0
BBX 7 13 0 0
BITMAP
00009940
0000FF70
0000FF70
0000FF70
0000FF70
0000FF70
0000FF70
0000FF70
0002FF60
000AFF30
98CFFB00
CFFFD200
BFD81000
ENDCHAR
STARTCHAR K
ENCODING 75
SWIDTH 625 0
DWIDTH 11 0
BBX 11 13 1 0
BITMAP
896000089910
CFA0007FF600
CFA003FFA000
CFA01DFD1000
CFA0AFF30000
CFA6FF700000
CFDFFFA00000
CFFFFFF40000
CFFF5EFC0000
CFF608FF5000
CFC001EFD000
CFA0006FF600
CFA0000DFE10
ENDCHAR
STARTCHAR L
ENCODING 76
SWIDTH 562 0
DWIDTH 10 0
BBX 9 13 1 0
BITMAP
8960000000
CFA0000000
CFA0000000
CFA0000000
CFA0000000
CFA0000000
CFA0000000
CFA0000000
CFA0000000
CFA0000000
CFD8888880
CFFFFFFFF0
CFFFFFFFF0
ENDCHAR
STARTCHAR M
ENCODING 77
SWIDTH 819 0
DWIDTH 15 0
BBX 13 13 1 0
BITMAP
017BA507BB5000
1DFFFFEFFFFA00
8FFDEFFFDEFF50
DFC01FFC01EF90
EF900DFA00DFA0
EF900DFA00DFA0
EF900DFA00DFA0
EF900DFA00DFA0
EF900DFA00DFA0
EF900DFA00DFA0
EF900DFA00DFA0
EF900DFA00DFA0
EF900DFA00DFA0
ENDCHAR
STARTCHAR N
ENCODING 78
SWIDTH 689 0
DWIDTH 12 0
BBX 11 13 1 0
BITMAP
899100029920
CFF80004FF40
CFFF2004FF40
CFFFA004FF40
CFFFF404FF40
CFBCFD04FF40
CFA4FF74FF40
CFA0AFE5FF40
CFA02FFDFF40
CFA008FFFF40
CFA001DFFF40
CFA0005FFF40
CFA0000BFF40
ENDCHAR
STARTCHAR O
ENCODING 79
SWIDTH 777 0
DWIDTH 14 0
BBX 14 14 0 -1
BITMAP
000038AA830000
001AFFFFFFA100
01CFFFCCFFFC10
09FFB1001BFF90
1FFB000000CFF1
5FF30000003FF5
7FF00000000FF7
6FF10000001FF6
4FF70000007FF4
0DFE300003EFD0
04FFF9559FFF40
006FFFFFFFF600
0003BFFFFB3000
00000133100000
ENDCHAR
STARTCHAR P
ENCODING 80
SWIDTH 642 0
DWIDTH 12 0
BBX 11 13 1 0
BITMAP
899998610000
CFFFFFFE5000
CFFEEFFFF400
CFA0005FFC00
CFA00008FF20
CFA00005FF30
CFA00008FF20
CFA0017FFC00
CFFFFFFFF300
CFFFFFFD4000
CFD777400000
CFA000000000
CFA000000000
ENDCHAR
STARTCHAR Q
ENCODING 81
SWIDTH 777 0
DWIDTH 14 0
BBX 14 16 0 -3
BITMAP
000038AA830000
001AFFFFFFA100
01CFFFCCFFFC10
09FFB1001BFF90
1FFB000000CFF1
5FF30000003FF5
7FF00000000FF7
6FF10000001FF7
4FF70000007FF4
0DFE300003EFC0
04FFF9559FFF40
006FFFFFFFF600
0003BFFFFF3000
00000137FF7000
00000000BFF300
00000000288500
ENDCHAR
STARTCHAR R
ENCODING 82
SWIDTH 651 0
DWIDTH 12 0
BBX 11 13 1 0
BITMAP
899998610000
CFFFFFFE5000
CFFEEFFFF400
CFA0005FFC00
CFA00008FF20
CFA00005FF30
CFA00008FF10
CFA0017FFB00
CFFFFFFFF300
CFFFFFFF3000
CFD77AFF3000
CFA001EFA000
CFA0009FF200
ENDCHAR
STARTCHAR S
ENCODING 83
SWIDTH 610 0
DWIDTH 11 0
BBX 11 13 0 0
BITMAP
002899999900
06FFFFFFFF00
2FFFEEEEEE00
7FF300000000
8FF100000000
4FFC98872000
0AFFFFFFE500
007DFFFFFE10
00000005FF60
00000001FF70
0788888CFF40
0DFFFFFFFA00
0DFFFFFE7000
ENDCHAR
STARTCHAR T
ENCODING 84
SWIDTH 578 0
DWIDTH 10 0
BBX 11 13 0 0
BITMAP
899999999920
DFFFFFFFFF40
CEEEFFEEEE30
0001FF700000
0001FF700000
0001FF700000
0001FF700000
0001FF700000
0001FF700000
0001FF700000
0001FF700000
0001FF700000
0001FF700000
ENDCHAR
STARTCHAR U
ENCODING 85
SWIDTH 673 0
DWIDTH 12 0
BBX 11 13 1 0
BITMAP
995000049910
FF800006FF20
FF800006FF20
FF800006FF20
FF800006FF20
FF800006FF20
FF800006FF20
FF800006FF20
EFA00008FF10
BFE3002EFD00
4FFE99EFF600
07FFFFFF9000
004BEEC50000
ENDCHAR
STARTCHAR V
ENCODING 86
SWIDTH 602 0
DWIDTH 11 0
BBX 11 13 0 0
BITMAP
899000029960
9FF30006FF60
4FF8000BFF20
0EFC001FFC00
0AFF205FF700
05FF609FF200
01EFB0EFC000
00AFE4FF7000
005FFCFF2000
001EFFFC0000
000AFFF70000
0005FFF20000
0001FFC00000
ENDCHAR
STARTCHAR W
ENCODING 87
SWIDTH 819 0
DWIDTH 15 0
BBX 13 14 1 -1
BITMAP
89600896008960
EF900DFA00DFA0
EF900DFA00DFA0
EF900DFA00DFA0
EF900DFA00DFA0
EF900DFA00DFA0
EF900DFA00DFA0
EF900DFA00DFA0
EF900DFA00DFA0
EFA00EFA00DFA0
BFE79FFF79FF70
3FFFFFFFFFFD10
04DFFB6DFFC200
00021000220000
ENDCHAR
STARTCHAR X
ENCODING 88
SWIDTH 608 0
DWIDTH 11 0
BBX 11 13 0 0
BITMAP
799200039970
5FFB000BFF40
0BFF405FFA00
02EFD1EFE200
007FFDFF7000
000DFFFC0000
0005FFF40000
0009FFF90000
004FFFFF3000
00CFF5FFC000
07FF809FF600
2EFD101EFE10
AFF50006FFA0
ENDCHAR
STARTCHAR Y
ENCODING 89
SWIDTH 620 0
DWIDTH 11 0
BBX 11 13 0 0
BITMAP
499100008960
7FF10000DF90
7FF10000DF90
7FF10000DF90
7FF20000EF90
4FF70005FF60
0CFF958FFE10
03EFFFFFF500
003BFFFC4000
0000AFD00000
0000AFD00000
0000AFD00000
0000AFD00000
ENDCHAR
STARTCHAR Z
ENCODING 90
SWIDTH 586 0
DWIDTH 11 0
BBX 11 13 0 0
BITMAP
599999999900
9FFFFFFFF900
8EEEEEFFE100
000008FF8000
00001EFE1000
00009FF70000
0002FFD00000
000AFF600000
003FFD000000
00BFF5000000
04FFF8888810
0CFFFFFFFF30
5FFFFFFFFF30
ENDCHAR
STARTCHAR bracketleft
ENCODING 91
SWIDTH 380 0
DWIDTH 7 0
BBX 6 17 1 -2
BITMAP
566661
DFFFF3
DFFFF3
DFB220
DFA000
DFA000
DFA000
DFA000
DFA000
DFA000
DFA000
DFA000
DFA000
DFA000
DFEBB2
DFFFF3
ACCCC2
ENDCHAR
STARTCHAR backslash
ENCODING 92
SWIDTH 490 0
DWIDTH 9 0
BBX 9 13 0 0
BITMAP
3992000000
1FF8000000
09FE100000
03FF600000
00CFC00000
006FF30000
001EF90000
0008FE1000
0002FF7000
0000BFD000
00005FF400
00000DFA00
000007FF20
ENDCHAR
STARTCHAR bracketright
ENCODING 93
SWIDTH 380 0
DWIDTH 7 0
BBX 6 17 0 -2
BITMAP
266664
5FFFFB
5FFFFB
122DFB
000CFB
000CFB
000CFB
000CFB
000CFB
000CFB
000CFB
000CFB
000CFB
000CFB
4BBEFB
5FFFFB
4CCCC9
ENDCHAR
STARTCHAR asciicircum
ENCODING 94
SWIDTH 293 0
DWIDTH 5 0
BBX 6 5 0 8
BITMAP
006100
09FC10
9FFFC1
6C29B0
010010
ENDCHAR
STARTCHAR underscore
ENCODING 95
SWIDTH 598 0
DWIDTH 11 0
BBX 9 4 1 -5
BITMAP
1333333300
4FFFFFFF10
4FFFFFFF10
1333333300
ENDCHAR
STARTCHAR grave
ENCODING 96
SWIDTH 225 0
DWIDTH 4 0
BBX 4 4 0 9
BITMAP
0500
6F90
8FFA
03C8
ENDCHAR
STARTCHAR a
ENCODING 97
SWIDTH 607 0
DWIDTH 11 0
BBX 10 11 0 -1
BITMAP
0017BB8104
02DFFFFE8F
0CFFCBFFFF
5FF7003EFF
8FE00008FF
8FE00007FF
7FF3000CFF
2FFD65BFFF
07FFFFFFEF
006DFFE71D
0000220000
ENDCHAR
STARTCHAR b
ENCODING 98
SWIDTH 597 0
DWIDTH 11 0
BBX 11 15 0 -1
BITMAP
122000000000
4FF200000000
4FF200000000
4FF200000000
4FF49BA50000
4FFFFFFFB000
4FFFEBDFF800
4FFC101BFF10
4FF40003FF40
4FF30002FF50
2FF80007FF20
0BFF848FFC00
02EFFFFFE300
002BFFFB3000
000012100000
ENDCHAR
STARTCHAR c
ENCODING 99
SWIDTH 521 0
DWIDTH 9 0
BBX 9 11 0 -1
BITMAP
0006BB8200
01CFFFFE50
0BFFCBFFD0
4FF8002D30
8FF0000100
9FD0000000
7FF2000500
2FFD64AF70
06FFFFFFC0
005DFFE810
0000120000
ENDCHAR
STARTCHAR d
ENCODING 100
SWIDTH 606 0
DWIDTH 11 0
BBX 10 15 0 -1
BITMAP
0000000122
00000006FF
00000006FF
00000006FF
0016BB87FF
02DFFFFFFF
0CFFCBFFFF
5FF7003EFF
8FE00008FF
9FD00007FF
7FF3000CFF
1EFE65BFFF
06FFFFFFEF
005DFFE61D
0000120000
ENDCHAR
STARTCHAR e
ENCODING 101
SWIDTH 524 0
DWIDTH 9 0
BBX 9 11 0 -1
BITMAP
0017BB9300
02DFFFFF60
0CFFCBFFD0
5FF70AFE30
8FE07FF500
8FD3FF7000
6FFDFA0500
1EFFE5AF80
06FFFFFFC0
005DFFE810
0000120000
ENDCHAR
STARTCHAR f
ENCODING 102
SWIDTH 395 0
DWIDTH 7 0
BBX 8 15 0 0
BITMAP
00000010
0004CFF9
006FFFF9
02EFD653
05FF2000
4AFF6660
9FFFFFE0
9FFFFFD0
07FF0000
07FF0000
07FF0000
07FF0000
07FF0000
07FF0000
07FF0000
ENDCHAR
STARTCHAR g
ENCODING 103
SWIDTH 607 0
DWIDTH 11 0
BBX 10 14 0 -4
BITMAP
0006BB8104
02DFFFFE8F
0CFFCBFFFF
4FF7003EFF
8FE00008FF
8FE00007FF
7FF3000CFF
2FFD65BFFF
07FFFFFFFF
005DFFEDFE
0000123EFA
0000CDFFF3
0000FFFD40
0000996100
ENDCHAR
STARTCHAR h
ENCODING 104
SWIDTH 562 0
DWIDTH 10 0
BBX 10 14 0 0
BITMAP
0221000000
1FF5000000
1FF5000000
1FF5000000
1FF6785000
1FFFFFFB10
1FFFEDFFA0
1FFB108FF2
1FF5002FF5
1FF5001FF5
1FF5001FF5
1FF5001FF5
1FF5001FF5
1FF5001FF5
ENDCHAR
STARTCHAR i
ENCODING 105
SWIDTH 235 0
DWIDTH 4 0
BBX 4 14 0 0
BITMAP
0671
5FF9
5FF9
0781
0662
1FF5
1FF5
1FF5
1FF5
1FF5
1FF5
1FF5
1FF5
1FF5
ENDCHAR
STARTCHAR j
ENCODING 106
SWIDTH 237 0
DWIDTH 4 0
BBX 7 18 -3 -4
BITMAP
00005710
0005FFA0
0005FFA0
00006810
00006620
0001FF60
0001FF60
0001FF60
0001FF60
0001FF60
0001FF60
0001FF60
0001FF60
0003FF40
001CFE10
8CFFF700
AFFF8000
69720000
ENDCHAR
STARTCHAR k
ENCODING 107
SWIDTH 539 0
DWIDTH 10 0
BBX 10 14 0 0
BITMAP
0221000000
1FF5000000
1FF5000000
1FF5000000
1FF5001663
1FF500CFD1
1FF509FF30
1FF56FF600
1FF8FFB000
1FFFFFF200
1FFFEEFA00
1FFF57FF40
1FF801DFC0
1FF5006FF6
ENDCHAR
STARTCHAR l
ENCODING 108
SWIDTH 235 0
DWIDTH 4 0
BBX 4 14 0 0
BITMAP
0221
1FF5
1FF5
1FF5
1FF5
1FF5
1FF5
1FF5
1FF5
1FF5
1FF5
1FF5
1FF5
1FF5
ENDCHAR
STARTCHAR m
ENCODING 109
SWIDTH 762 0
DWIDTH 14 0
BBX 13 10 0 0
BITMAP
04068611785000
1FDFFFCEFFFB00
1FFFDFFFFDFF70
1FF707FF40AFC0
1FF504FF208FD0
1FF504FF208FD0
1FF504FF208FD0
1FF504FF208FD0
1FF504FF208FD0
1FF504FF208FD0
ENDCHAR
STARTCHAR n
ENCODING 110
SWIDTH 562 0
DWIDTH 10 0
BBX 10 10 0 0
BITMAP
0403885000
1FBFFFFB10
1FFFEDFFA0
1FFB108FF2
1FF5002FF5
1FF5001FF5
1FF5001FF5
1FF5001FF5
1FF5001FF5
1FF5001FF5
ENDCHAR
STARTCHAR o
ENCODING 111
SWIDTH 579 0
DWIDTH 10 0
BBX 10 11 0 -1
BITMAP
0016BB9300
02DFFFFF70
0CFFCBEFF4
5FF7002EFB
8FE00008FE
9FD00007FF
6FF3000BFC
1EFE65AFF7
06FFFFFFB0
004DFFE810
0000120000
ENDCHAR
STARTCHAR p
ENCODING 112
SWIDTH 608 0
DWIDTH 11 0
BBX 11 14 0 -4
BITMAP
04028BA60000
1F8EFFFFD200
1FFFEBCFFC00
1FFD1008FF40
1FF70000FF70
1FF60000EF80
1FFA0003FF60
1FFFA46EFE10
1FFFFFFFF700
1FFBEFFD5000
1FF503200000
1FF500000000
1FF500000000
199300000000
ENDCHAR
STARTCHAR q
ENCODING 113
SWIDTH 607 0
DWIDTH 11 0
BBX 10 14 0 -4
BITMAP
0016AB7104
02DFFFFE8F
0CFFCBFFFF
5FF7003EFF
8FE00008FF
8FE00007FF
6FF3000CFF
2FFD65BFFF
06FFFFFFFF
005DFFEBFF
00002306FF
00000006FF
00000006FF
0000000399
ENDCHAR
STARTCHAR r
ENCODING 114
SWIDTH 414 0
DWIDTH 7 0
BBX 8 10 0 0
BITMAP
04015661
1F8EFFF4
1FFFFFF4
1FFD3000
1FF60000
1FF50000
1FF50000
1FF50000
1FF50000
1FF50000
ENDCHAR
STARTCHAR s
ENCODING 115
SWIDTH 523 0
DWIDTH 9 0
BBX 9 10 0 0
BITMAP
0025666630
07FFFFFF70
2FFFFFFF70
5FF2000000
3FFDCCB600
0AFFFFFF80
005899CFE0
266666AFE0
6FFFFFFF90
6FFFFFE910
ENDCHAR
STARTCHAR t
ENCODING 116
SWIDTH 437 0
DWIDTH 8 0
BBX 8 14 0 0
BITMAP
01220000
09FC0000
09FC0000
09FC0000
4BFD6663
BFFFFFF7
BFFFFFF7
09FC0000
09FC0000
09FC0000
07FE1000
03FFC663
008FFFF7
0005CFF7
ENDCHAR
STARTCHAR u
ENCODING 117
SWIDTH 562 0
DWIDTH 10 0
BBX 10 11 0 -1
BITMAP
1661001661
3FF3003FF3
3FF3003FF3
3FF3003FF3
3FF3003FF3
3FF3003FF3
2FF5006FF3
0DFD55EFF3
04FFFFFFF3
005DFFC3B3
0000220000
ENDCHAR
STARTCHAR v
ENCODING 118
SWIDTH 532 0
DWIDTH 10 0
BBX 10 10 0 0
BITMAP
6650001663
AFF1007FF3
4FF600CFD0
0DFB03FF70
08FF28FF20
02FF7DFB00
00BFEFF500
005FFFE000
001EFF9000
0009FF3000
ENDCHAR
STARTCHAR w
ENCODING 119
SWIDTH 756 0
DWIDTH 14 0
BBX 13 11 0 -1
BITMAP
16610266003650
3FF306FF009FC0
3FF306FF009FC0
3FF306FF009FC0
3FF306FF009FC0
3FF306FF009FC0
2FF406FF009FC0
1FFA4CFF85EFA0
08FFFFFFFFFF30
008FFE7AFFD400
00012000120000
ENDCHAR
STARTCHAR x
ENCODING 120
SWIDTH 528 0
DWIDTH 10 0
BBX 10 10 0 0
BITMAP
6770004773
5FF802EFC1
09FF4BFE20
00CFEFF600
002EFFA000
000DFF6000
008FFFE200
04FF9EFC00
1EFD05FF80
AFF300AFF3
ENDCHAR
STARTCHAR y
ENCODING 121
SWIDTH 562 0
DWIDTH 10 0
BBX 10 14 0 -4
BITMAP
1661001661
3FF3003FF3
3FF3003FF3
3FF3003FF3
3FF3003FF3
3FF3003FF3
2FF5006FF3
0DFD55EFF3
04FFFFFFF3
005DFFEFF2
000023DFD0
000ADFFF50
000CFFE600
0007972000
ENDCHAR
STARTCHAR z
ENCODING 122
SWIDTH 481 0
DWIDTH 9 0
BBX 9 10 0 0
BITMAP
3666666610
9FFFFFFB00
9FFFFFF300
0000DF9000
0007FE2000
001EF70000
009FD10000
03FFA66620
0BFFFFFF40
5FFFFFFF40
ENDCHAR
STARTCHAR braceleft
ENCODING 123
SWIDTH 466 0
DWIDTH 8 0
BBX 8 17 0 -2
BITMAP
00004664
000AFFFB
003FFFFB
005FF521
005FF300
005FF300
006FF300
7AEFD000
AFFE2000
8DFFB000
008FF200
005FF300
005FF300
005FF300
004FFCB8
001DFFFB
0002ACC9
ENDCHAR
STARTCHAR bar
ENCODING 124
SWIDTH 267 0
DWIDTH 5 0
BBX 3 17 1 -2
BITMAP
5640
DFA0
DFA0
DFA0
DFA0
DFA0
DFA0
DFA0
DFA0
DFA0
DFA0
DFA0
DFA0
DFA0
DFA0
DFA0
AC80
ENDCHAR
STARTCHAR braceright
ENCODING 125
SWIDTH 466 0
DWIDTH 8 0
BBX 9 17 0 -2
BITMAP
2665100000
5FFFE20000
5FFFF90000
122DFB0000
000CFB0000
000CFB0000
000CFC0000
0007FFBA10
0000BFFF10
0005FFED10
000BFD0000
000CFB0000
000CFB0000
000CFB0000
4BBEFA0000
5FFFF50000
4CCB500000
ENDCHAR
STARTCHAR asciitilde
ENCODING 126
SWIDTH 451 0
DWIDTH 8 0
BBX 8 5 0 4
BITMAP
00320130
0BFF6AF3
1FFEFFF2
0EE1AE90
01000000
ENDCHAR
STARTCHAR nonbreakingspace
ENCODING 160
SWIDTH 279 0
DWIDTH 5 0
BBX 1 1 0 0
BITMAP
00
ENDCHAR
STARTCHAR exclamdown
ENCODING 161
SWIDTH 274 0
DWIDTH 5 0
BBX 3 14 1 -3
BITMAP
4930
EFD0
CFB0
1410
8E70
9F80
AF90
BFA0
BFB0
CFB0
DFC0
EFD0
FFE0
8880
ENDCHAR
STARTCHAR cent
ENCODING 162
SWIDTH 462 0
DWIDTH 8 0
BBX 8 13 0 0
BITMAP
00029300
0004F500
0007F810
01CFFFD2
0BFC7BF6
2FD10050
4FA00000
2FD00040
0BFC8CF5
01CFFFD2
0006F800
0004F500
0004F500
ENDCHAR
STARTCHAR sterling
ENCODING 163
SWIDTH 681 0
DWIDTH 12 0
BBX 12 13 0 0
BITMAP
000038910000
0008FFF20000
004FFFE20000
00AFE2000000
00BFC0000000
03CFD3200000
3FFFFF900000
3FFFFF900000
03CFD3200000
00BFC0000BC7
00BFE888BFF6
00BFFFFFFFC0
00BFFFFFE910
ENDCHAR
STARTCHAR currency
ENCODING 164
SWIDTH 454 0
DWIDTH 8 0
BBX 8 8 0 2
BITMAP
07100071
4FDEFDF7
0AF98FC0
0BB009E0
0BC00AD0
0BFAAFC1
4FBDDBF6
03000040
ENDCHAR
STARTCHAR yen
ENCODING 165
SWIDTH 653 0
DWIDTH 12 0
BBX 11 13 0 0
BITMAP
199300005980
2FF500009FE0
2FF500009FE0
2FF500009FE0
2FF60000AFD0
0EFC0002EFB0
08FFC66DFF40
00BFFFFFF800
07AEFFFFDA50
0BFFFFFFFF70
08BBCFFBBB50
00006FF20000
00006FF20000
ENDCHAR
STARTCHAR brokenbar
ENCODING 166
SWIDTH 269 0
DWIDTH 5 0
BBX 3 17 1 -2
BITMAP
5640
DFA0
DFA0
DFA0
DFA0
DFA0
DFA0
AC80
0000
5640
DFA0
DFA0
DFA0
DFA0
DFA0
DFA0
AC80
ENDCHAR
STARTCHAR section
ENCODING 167
SWIDTH 569 0
DWIDTH 10 0
BBX 9 13 1 0
BITMAP
0389999700
5FFFFFFB00
DFECCCC900
FF94441000
BFFFFFF600
BFFFFFFF20
FF8222FF60
DFDAABFF40
6FFFFFFF10
049BBBFF50
666666FF50
FFFFFFFE10
FFFFFFC300
ENDCHAR
STARTCHAR dieresis
ENCODING 168
SWIDTH 300 0
DWIDTH 5 0
BBX 6 3 0 9
BITMAP
7A05A1
EF3BF5
450260
ENDCHAR
STARTCHAR copyright
ENCODING 169
SWIDTH 655 0
DWIDTH 12 0
BBX 11 11 0 1
BITMAP
000035520000
002CFEEFA100
02EC3444DC10
0AC4EEEB2E70
1F4D800207D0
3F3F100004F0
2F3F300005E0
0D89D6780BA0
05F67CC68F30
007FB78CE500
00039CB82000
ENDCHAR
STARTCHAR ordfeminine
ENCODING 170
SWIDTH 451 0
DWIDTH 8 0
BBX 6 9 1 4
BITMAP
06BB35
7FBCFC
DA00DC
E800BC
AE68FC
1BFF8A
001000
AAAAA8
BBBBB9
ENDCHAR
STARTCHAR guillemotleft
ENCODING 171
SWIDTH 704 0
DWIDTH 13 0
BBX 12 9 0 0
BITMAP
0000A90005D2
000AFF404FFA
009FF604EFB1
09FF603EFB10
5FFB00DFF300
08FFA03EFD30
007FFB12DFE3
0006FF402DF9
000055000290
ENDCHAR
STARTCHAR logicalnot
ENCODING 172
SWIDTH 529 0
DWIDTH 10 0
BBX 8 5 1 3
BITMAP
88888884
EFFFFFF7
CCCCCFF7
00000FF6
00000994
ENDCHAR
STARTCHAR uni00AD
ENCODING 173
SWIDTH 418 0
DWIDTH 8 0
BBX 6 3 1 5
BITMAP
888884
EFFFF7
BCCCC6
ENDCHAR
STARTCHAR registered
ENCODING 174
SWIDTH 439 0
DWIDTH 8 0
BBX 8 7 0 6
BITMAP
00599400
08C97B60
1C6997C1
486559A3
2B6CE2C1
09B45B80
007BB600
ENDCHAR
STARTCHAR macron
ENCODING 175
SWIDTH 247 0
DWIDTH 4 0
BBX 5 3 0 9
BITMAP
777730
FFFF70
555520
ENDCHAR
STARTCHAR degree
ENCODING 176
SWIDTH 381 0
DWIDTH 7 0
BBX 7 7 0 6
BITMAP
00241000
07FFE500
2FE9FE10
4F80BF30
2FEAFE10
06FFE500
00131000
ENDCHAR
STARTCHAR plusminus
ENCODING 177
SWIDTH 516 0
DWIDTH 9 0
BBX 9 10 0 0
BITMAP
0005980000
0008FD0000
088CFE8830
1FFFFFFF50
1CCEFFCC40
0008FD0000
0006A90000
0666666620
1FFFFFFF50
1FFFFFFF50
ENDCHAR
STARTCHAR twosuperior
ENCODING 178
SWIDTH 355 0
DWIDTH 6 0
BBX 6 7 0 6
BITMAP
079950
0CFFF4
016AF7
0AFFE2
0FD741
1FFFF5
099993
ENDCHAR
STARTCHAR threesuperior
ENCODING 179
SWIDTH 354 0
DWIDTH 6 0
BBX 5 7 1 6
BITMAP
999500
FFFF50
38AF80
4FFF50
379F80
FFFF40
999500
ENDCHAR
STARTCHAR acute
ENCODING 180
SWIDTH 225 0
DWIDTH 4 0
BBX 4 4 0 9
BITMAP
0050
08F7
9FF9
8C30
ENDCHAR
STARTCHAR mu
ENCODING 181
SWIDTH 571 0
DWIDTH 10 0
BBX 9 14 1 -4
BITMAP
6630005630
EF7000DF80
EF7000DF80
EF7000DF80
EF7000DF80
EF7000DF80
EF9001FF80
EFF74CFF80
EFFFFFFF80
EFDFFE6680
EF31200000
EF20000000
EF10000000
DE00000000
ENDCHAR
STARTCHAR paragraph
ENCODING 182
SWIDTH 808 0
DWIDTH 15 0
BBX 14 13 0 0
BITMAP
00016899999992
005EFFFFFFFFF4
05FFFEFFFEEFF4
0DFE50EF904FF4
3FF700EF904FF4
4FF400EF904FF4
3FF800EF904FF4
0DFF61EF904FF4
04FFFFFF904FF4
004EFFFF904FF4
000157EF904FF4
000000EF904FF4
000000EF904FF4
ENDCHAR
STARTCHAR periodcentered
ENCODING 183
SWIDTH 261 0
DWIDTH 5 0
BBX 4 4 0 4
BITMAP
07B3
1FFC
0DF8
0020
ENDCHAR
STARTCHAR cedilla
ENCODING 184
SWIDTH 208 0
DWIDTH 4 0
BBX 4 5 0 -4
BITMAP
0360
0990
0AF8
99FA
9FE4
ENDCHAR
STARTCHAR onesuperior
ENCODING 185
SWIDTH 231 0
DWIDTH 4 0
BBX 4 7 0 6
BITMAP
2991
3FF1
0AF1
0AF1
0AF1
0AF1
0691
ENDCHAR
STARTCHAR ordmasculine
ENCODING 186
SWIDTH 432 0
DWIDTH 8 0
BBX 6 9 1 4
BITMAP
06BB40
7FBCF4
DA00DA
E800BA
AE68F6
1BFF90
001100
AAAAA8
BBBBB9
ENDCHAR
STARTCHAR guillemotright
ENCODING 187
SWIDTH 703 0
DWIDTH 13 0
BBX 13 9 0 0
BITMAP
06D1002D500000
1EFD109FF50000
03EFC10BFF4000
003EFC10BFF400
0007FF902FFE10
006FFB12DFE300
07FFA03EFE3000
1DFA008FD20000
03800009200000
ENDCHAR
STARTCHAR onequarter
ENCODING 188
SWIDTH 648 0
DWIDTH 12 0
BBX 11 13 0 0
BITMAP
079500059300
0BF8001ED000
03F8009F5000
02F802FC0000
02F80AF30000
02F83FA00000
0195CF331000
0005F98F6A40
000DE1AF5F70
006F70CE4F70
01ED10EFDFE0
08F601DDEFE0
2EC000004F70
ENDCHAR
STARTCHAR onehalf
ENCODING 189
SWIDTH 637 0
DWIDTH 11 0
BBX 11 13 0 0
BITMAP
079500059300
0BF8001ED000
03F8009F5000
02F802FC0000
02F80AF30000
02F83FA00000
0195CF433100
0005F97FFE40
000DE1488FB0
006F702CFF90
01ED109FB910
08F600BFBB70
2EC000BFFFA0
ENDCHAR
STARTCHAR threequarters
ENCODING 190
SWIDTH 708 0
DWIDTH 13 0
BBX 13 13 0 0
BITMAP
29983000594000
3FFFE201DE1000
058BF407F60000
08FFF21ED00000
057BF49F500000
3FFFE4FC000000
29983AF4310000
00003FA6F7A500
0000CF28F5F800
0005F90AF3F800
000DE10CFDFE10
006F700DDEFE10
01ED100003F800
ENDCHAR
STARTCHAR questiondown
ENCODING 191
SWIDTH 602 0
DWIDTH 11 0
BBX 11 14 0 -3
BITMAP
000002960000
00000AFF2000
000009FE1000
000000420000
000008EE0000
00001CFD0000
007DFFF80000
09FFFFB00000
2FFD75000000
6FF300000000
5FF600000000
1DFFFFFFFF20
03EFFFFFFF20
001688888810
ENDCHAR
STARTCHAR Agrave
ENCODING 192
SWIDTH 673 0
DWIDTH 12 0
BBX 11 18 1 0
BITMAP
000500000000
008F80000000
009FF8000000
0004D7000000
000000000000
000588610000
03DFFFFE4000
1EFFFFFFE200
8FF8107FFA00
DFC0000AFF00
EF800006FF10
FF800006FF20
FF800006FF20
FFFFFFFFFF20
FFFFFFFFFF20
FFC7777AFF20
FF800006FF20
FF800006FF20
ENDCHAR
STARTCHAR Aacute
ENCODING 193
SWIDTH 673 0
DWIDTH 12 0
BBX 11 18 1 0
BITMAP
000000500000
000007F80000
00008FFA0000
00006D400000
000000000000
000588610000
03DFFFFE4000
1EFFFFFFE200
8FF8107FFA00
DFC0000AFF00
EF800006FF10
FF800006FF20
FF800006FF20
FFFFFFFFFF20
FFFFFFFFFF20
FFC7777AFF20
FF800006FF20
FF800006FF20
ENDCHAR
STARTCHAR Acircumflex
ENCODING 194
SWIDTH 673 0
DWIDTH 12 0
BBX 11 17 1 0
BITMAP
000023000000
0003DE300000
002EEEE30000
000942A00000
000588610000
03DFFFFE4000
1EFFFFFFE200
8FF8107FFA00
DFC0000AFF00
EF800006FF10
FF800006FF20
FF800006FF20
FFFFFFFFFF20
FFFFFFFFFF20
FFC7777AFF20
FF800006FF20
FF800006FF20
ENDCHAR
STARTCHAR Atilde
ENCODING 195
SWIDTH 673 0
DWIDTH 12 0
BBX 11 17 1 0
BITMAP
000540350000
009FF9DE0000
00CF9FFB0000
006804720000
000588610000
03DFFFFE4000
1EFFFFFFE200
8FF8107FFA00
DFC0000AFF00
EF800006FF10
FF800006FF20
FF800006FF20
FFFFFFFFFF20
FFFFFFFFFF20
FFC7777AFF20
FF800006FF20
FF800006FF20
ENDCHAR
STARTCHAR Adieresis
ENCODING 196
SWIDTH 673 0
DWIDTH 12 0
BBX 11 16 1 0
BITMAP
003B32A40000
009F86FA0000
001710620000
000588610000
03DFFFFE4000
1EFFFFFFE200
8FF8107FFA00
DFC0000AFF00
EF800006FF10
FF800006FF20
FF800006FF20
FFFFFFFFFF20
FFFFFFFFFF20
FFC7777AFF20
FF800006FF20
FF800006FF20
ENDCHAR
STARTCHAR Aring
ENCODING 197
SWIDTH 673 0
DWIDTH 12 0
BBX 11 16 1 0
BITMAP
000056000000
0007ED800000
0009A9B00000
0007FF910000
02DFFFFD3000
1EFFFFFFE200
8FF8107FFA00
DFC0000AFF00
EF800006FF10
FF800006FF20
FF800006FF20
FFFFFFFFFF20
FFFFFFFFFF20
FFC7777AFF20
FF800006FF20
FF800006FF20
ENDCHAR
STARTCHAR AE
ENCODING 198
SWIDTH 988 0
DWIDTH 18 0
BBX 17 13 1 0
BITMAP
000589999999999920
03DFFFFFFFFFFFFF30
1EFFFEEEFFEEEEEE30
8FF81007FF10000000
DFC00007FF20000000
EF800007FF98882000
FF800007FFFFFF4000
FF800007FFFFFF3000
FFFFFFFFFF20000000
FFFFFFFFFF20000000
FFC7777BFF98888820
FF800007FFFFFFFF30
FF800007FFFFFFFF30
ENDCHAR
STARTCHAR Ccedilla
ENCODING 199
SWIDTH 640 0
DWIDTH 12 0
BBX 12 17 0 -4
BITMAP
000038BB9400
001BFFFFFFB1
01DFFFCCFFC0
09FFB1001A30
1FFB00000000
5FF300000000
7FF000000000
7FF100000000
4FF700000000
0DFE30000300
05FFF9558E70
005FFFFFFFE1
0003BFFFFB40
00000AB31000
00000AF70000
000099FA0000
0000AFD30000
ENDCHAR
STARTCHAR Egrave
ENCODING 200
SWIDTH 578 0
DWIDTH 10 0
BBX 9 17 1 0
BITMAP
0023000000
00CE400000
02CFE40000
0007E30000
8999A99970
CFFFFFFFC0
CFFEEEEEB0
CFA0000000
CFA0000000
CFD8887000
CFFFFFC000
CFFFFFC000
CFA0000000
CFA0000000
CFD8888860
CFFFFFFFC0
CFFFFFFFC0
ENDCHAR
STARTCHAR Eacute
ENCODING 201
SWIDTH 578 0
DWIDTH 10 0
BBX 9 18 1 0
BITMAP
0000014000
00002DE200
0002DFE400
0001D91000
0000000000
8999999970
CFFFFFFFC0
CFFEEEEEB0
CFA0000000
CFA0000000
CFD8887000
CFFFFFC000
CFFFFFC000
CFA0000000
CFA0000000
CFD8888860
CFFFFFFFC0
CFFFFFFFC0
ENDCHAR
STARTCHAR Ecircumflex
ENCODING 202
SWIDTH 578 0
DWIDTH 10 0
BBX 9 17 1 0
BITMAP
0000400000
0009F90000
009FDF9000
0049094000
8999999970
CFFFFFFFC0
CFFEEEEEB0
CFA0000000
CFA0000000
CFD8887000
CFFFFFC000
CFFFFFC000
CFA0000000
CFA0000000
CFD8888860
CFFFFFFFC0
CFFFFFFFC0
ENDCHAR
STARTCHAR Edieresis
ENCODING 203
SWIDTH 578 0
DWIDTH 10 0
BBX 9 16 1 0
BITMAP
0097079000
02FE0EF200
0054045000
8999999970
CFFFFFFFC0
CFFEEEEEB0
CFA0000000
CFA0000000
CFD8887000
CFFFFFC000
CFFFFFC000
CFA0000000
CFA0000000
CFD8888860
CFFFFFFFC0
CFFFFFFFC0
ENDCHAR
STARTCHAR Igrave
ENCODING 204
SWIDTH 270 0
DWIDTH 5 0
BBX 5 17 -1 0
BITMAP
041000
2ED200
4EFD20
019D10
008A60
00CFA0
00CFA0
00CFA0
00CFA0
00CFA0
00CFA0
00CFA0
00CFA0
00CFA0
00CFA0
00CFA0
00CFA0
ENDCHAR
STARTCHAR Iacute
ENCODING 205
SWIDTH 270 0
DWIDTH 5 0
BBX 5 18 1 0
BITMAP
002200
03ED10
3EFD30
2E7000
000000
896000
CFA000
CFA000
CFA000
CFA000
CFA000
CFA000
CFA000
CFA000
CFA000
CFA000
CFA000
CFA000
ENDCHAR
STARTCHAR Icircumflex
ENCODING 206
SWIDTH 270 0
DWIDTH 5 0
BBX 5 17 0 0
BITMAP
004000
0AF800
AFDF80
480930
089600
0CFA00
0CFA00
0CFA00
0CFA00
0CFA00
0CFA00
0CFA00
0CFA00
0CFA00
0CFA00
0CFA00
0CFA00
ENDCHAR
STARTCHAR Idieresis
ENCODING 207
SWIDTH 270 0
DWIDTH 5 0
BBX 7 16 -1 0
BITMAP
1A707800
3FE0FF10
05404500
00896000
00CFA000
00CFA000
00CFA000
00CFA000
00CFA000
00CFA000
00CFA000
00CFA000
00CFA000
00CFA000
00CFA000
00CFA000
ENDCHAR
STARTCHAR Eth
ENCODING 208
SWIDTH 672 0
DWIDTH 12 0
BBX 12 13 0 0
BITMAP
049999720000
07FFFFFFA100
07FFEEFFFD10
07FF102BFFA0
07FF1000AFF2
8CFF94002FF7
EFFFF8000EF9
BEFFD6001FF7
07FF10006FF5
07FF1004EFD0
07FF88BFFF40
07FFFFFFE500
07FFFFD82000
ENDCHAR
STARTCHAR Ntilde
ENCODING 209
SWIDTH 689 0
DWIDTH 12 0
BBX 11 17 1 0
BITMAP
000450360000
007FFBBF1000
00AF9FFD0000
005913720000
899100029920
CFF80004FF40
CFFF2004FF40
CFFFA004FF40
CFFFF404FF40
CFBCFD04FF40
CFA4FF74FF40
CFA0AFE5FF40
CFA02FFDFF40
CFA008FFFF40
CFA001DFFF40
CFA0005FFF40
CFA0000BFF40
ENDCHAR
STARTCHAR Ograve
ENCODING 210
SWIDTH 777 0
DWIDTH 14 0
BBX 14 19 0 -1
BITMAP
00000500000000
00008F70000000
0000AFF8000000
000004D7000000
00000000000000
000038AA830000
001AFFFFFFA100
01CFFFCCFFFC10
09FFB1001BFF90
1FFB000000CFF1
5FF30000003FF5
7FF00000000FF7
6FF10000001FF6
4FF70000007FF4
0DFE300003EFD0
04FFF9559FFF40
006FFFFFFFF600
0003BFFFFB3000
00000133100000
ENDCHAR
STARTCHAR Oacute
ENCODING 211
SWIDTH 777 0
DWIDTH 14 0
BBX 14 19 0 -1
BITMAP
00000000500000
00000007F90000
0000007FFA0000
0000006D400000
00000000000000
000038AA830000
001AFFFFFFA100
01CFFFCCFFFC10
09FFB1001BFF90
1FFB000000CFF1
5FF30000003FF5
7FF00000000FF7
6FF10000001FF6
4FF70000007FF4
0DFE300003EFD0
04FFF9559FFF40
006FFFFFFFF600
0003BFFFFB3000
00000133100000
ENDCHAR
STARTCHAR Ocircumflex
ENCODING 212
SWIDTH 777 0
DWIDTH 14 0
BBX 14 18 0 -1
BITMAP
00000022000000
000003EE300000
00002EEEE20000
00000933A00000
000038AA830000
001AFFFFFFA100
01CFFFCCFFFC10
09FFB1001BFF90
1FFB000000CFF1
5FF30000003FF5
7FF00000000FF7
6FF10000001FF6
4FF70000007FF4
0DFE300003EFD0
04FFF9559FFF40
006FFFFFFFF600
0003BFFFFB3000
00000133100000
ENDCHAR
STARTCHAR Otilde
ENCODING 213
SWIDTH 777 0
DWIDTH 14 0
BBX 14 18 0 -1
BITMAP
00000540450000
0000AFF8DD0000
0000DE9FFA0000
00006804710000
000038AA830000
001AFFFFFFA100
01CFFFCCFFFC10
09FFB1001BFF90
1FFB000000CFF1
5FF30000003FF5
7FF00000000FF7
6FF10000001FF6
4FF70000007FF4
0DFE300003EFD0
04FFF9559FFF40
006FFFFFFFF600
0003BFFFFB3000
00000133100000
ENDCHAR
STARTCHAR Odieresis
ENCODING 214
SWIDTH 777 0
DWIDTH 14 0
BBX 14 17 0 -1
BITMAP
00004B22A40000
0000AF76FA0000
00002611620000
000038AA830000
001AFFFFFFA100
01CFFFCCFFFC10
09FFB1001BFF90
1FFB000000CFF1
5FF30000003FF5
7FF00000000FF7
6FF10000001FF6
4FF70000007FF4
0DFE300003EFD0
04FFF9559FFF40
006FFFFFFFF600
0003BFFFFB3000
00000133100000
ENDCHAR
STARTCHAR multiply
ENCODING 215
SWIDTH 479 0
DWIDTH 9 0
BBX 7 7 1 3
BITMAP
19104700
BFC5FF70
8FFFFE30
0AFFF400
5FFFFC10
CFE9FF70
1B308900
ENDCHAR
STARTCHAR Oslash
ENCODING 216
SWIDTH 777 0
DWIDTH 14 0
BBX 14 14 0 -1
BITMAP
000038AB838950
001AFFFFFFFE10
01CFFFCCFFFD10
09FFB100CFFF90
1FFB0009FCBFF1
5FF3005FE23FF5
7FF002EF501FF7
7FF20CF9001FF6
4FF78FD1007FF4
0DFEFF3003EFD0
04FFFC559FFF40
00CFFFFFFFF600
07FEBFFFFB3000
00000133100000
ENDCHAR
STARTCHAR Ugrave
ENCODING 217
SWIDTH 673 0
DWIDTH 12 0
BBX 11 17 1 0
BITMAP
000500000000
005FA0000000
007FFB000000
0002B9000000
995000049910
FF800006FF20
FF800006FF20
FF800006FF20
FF800006FF20
FF800006FF20
FF800006FF20
FF800006FF20
EFA00008FF10
BFE3002EFD00
4FFE99EFF600
07FFFFFF9000
004BEEC50000
ENDCHAR
STARTCHAR Uacute
ENCODING 218
SWIDTH 673 0
DWIDTH 12 0
BBX 11 18 1 0
BITMAP
000000410000
000006FA0000
00006FFB1000
00005E500000
000000000000
995000049910
FF800006FF20
FF800006FF20
FF800006FF20
FF800006FF20
FF800006FF20
FF800006FF20
FF800006FF20
EFA00008FF10
BFE3002EFD00
4FFE99EFF600
07FFFFFF9000
004BEEC50000
ENDCHAR
STARTCHAR Ucircumflex
ENCODING 219
SWIDTH 673 0
DWIDTH 12 0
BBX 11 17 1 0
BITMAP
000023000000
0003DE300000
002EEEE30000
000942A00000
995000049910
FF800006FF20
FF800006FF20
FF800006FF20
FF800006FF20
FF800006FF20
FF800006FF20
FF800006FF20
EFA00008FF10
BFE3002EFD00
4FFE99EFF600
07FFFFFF9000
004BEEC50000
ENDCHAR
STARTCHAR Udieresis
ENCODING 220
SWIDTH 673 0
DWIDTH 12 0
BBX 11 16 1 0
BITMAP
003B32A40000
009F86FA0000
001710620000
995000049910
FF800006FF20
FF800006FF20
FF800006FF20
FF800006FF20
FF800006FF20
FF800006FF20
FF800006FF20
EFA00008FF10
BFE3002EFD00
4FFE99EFF600
07FFFFFF9000
004BEEC50000
ENDCHAR
STARTCHAR Yacute
ENCODING 221
SWIDTH 620 0
DWIDTH 11 0
BBX 11 17 0 0
BITMAP
000000140000
000001CE2000
00002DFE4000
00001C910000
499100008960
7FF10000DF90
7FF10000DF90
7FF10000DF90
7FF20000EF90
4FF70005FF60
0CFF958FFE10
03EFFFFFF500
003BFFFC4000
0000AFD00000
0000AFD00000
0000AFD00000
0000AFD00000
ENDCHAR
STARTCHAR Thorn
ENCODING 222
SWIDTH 637 0
DWIDTH 11 0
BBX 11 15 1 -1
BITMAP
221000000000
CFA000000000
CFC555200000
CFFFFFFB2000
CFFFFFFFE200
CFB3349FFB00
CFA0000AFF10
CFA00005FF30
CFA00007FF20
CFA0003EFD00
CFECCDFFF500
CFFFFFFF7000
CFEBBB830000
CFA000000000
785000000000
ENDCHAR
STARTCHAR germandbls
ENCODING 223
SWIDTH 813 0
DWIDTH 15 0
BBX 15 15 0 0
BITMAP
0000001100000000
0004CFFFFB300000
006FFFFFFFE20000
02EFD6557FF70000
05FF20000CF90000
4AFF00047FF70000
9FFF01DFFFE20000
9FFF09FFEB300000
07FF0CFA00000000
07FF0AFFCCCC9200
07FF03EFFFFFFE10
07FF00279999FF60
07FF01666667FF60
07FF02FFFFFFFE20
07FF02FFFFFFC300
ENDCHAR
STARTCHAR agrave
ENCODING 224
SWIDTH 607 0
DWIDTH 11 0
BBX 10 16 0 -1
BITMAP
0005000000
004FB00000
006FFB0000
0002BA0000
0000000000
0017BB8104
02DFFFFE8F
0CFFCBFFFF
5FF7003EFF
8FE00008FF
8FE00007FF
7FF3000CFF
2FFD65BFFF
07FFFFFFEF
006DFFE71D
0000220000
ENDCHAR
STARTCHAR aacute
ENCODING 225
SWIDTH 607 0
DWIDTH 11 0
BBX 10 16 0 -1
BITMAP
0000004100
000006FA00
00006FFB10
00005D5000
0000000000
0017BB8104
02DFFFFE8F
0CFFCBFFFF
5FF7003EFF
8FE00008FF
8FE00007FF
7FF3000CFF
2FFD65BFFF
07FFFFFFEF
006DFFE71D
0000220000
ENDCHAR
STARTCHAR acircumflex
ENCODING 226
SWIDTH 607 0
DWIDTH 11 0
BBX 10 15 0 -1
BITMAP
0000130000
0001CF5000
001DFEF500
000751B100
0017BB8104
02DFFFFE8F
0CFFCBFFFF
5FF7003EFF
8FE00008FF
8FE00007FF
7FF3000CFF
2FFD65BFFF
07FFFFFFEF
006DFFE71D
0000220000
ENDCHAR
STARTCHAR atilde
ENCODING 227
SWIDTH 607 0
DWIDTH 11 0
BBX 10 15 0 -1
BITMAP
0004503600
007FFBBF10
00AF9FFE00
0049137300
0017BB8104
02DFFFFE8F
0CFFCBFFFF
5FF7003EFF
8FE00008FF
8FE00007FF
7FF3000CFF
2FFD65BFFF
07FFFFFFEF
006DFFE71D
0000220000
ENDCHAR
STARTCHAR adieresis
ENCODING 228
SWIDTH 607 0
DWIDTH 11 0
BBX 10 14 0 -1
BITMAP
002A519600
006FA3FD00
0016206300
0017BB8104
02DFFFFE8F
0CFFCBFFFF
5FF7003EFF
8FE00008FF
8FE00007FF
7FF3000CFF
2FFD65BFFF
07FFFFFFEF
006DFFE71D
0000220000
ENDCHAR
STARTCHAR aring
ENCODING 229
SWIDTH 607 0
DWIDTH 11 0
BBX 10 15 0 -1
BITMAP
00008A2000
0006DAC000
0006DAC000
00008A3000
0017BB8104
02DFFFFE8F
0CFFCBFFFF
5FF7003EFF
8FE00008FF
8FE00007FF
7FF3000CFF
2FFD65BFFF
07FFFFFFEF
006DFFE71D
0000220000
ENDCHAR
STARTCHAR ae
ENCODING 230
SWIDTH 976 0
DWIDTH 18 0
BBX 18 11 0 -1
BITMAP
0017BB810416AB9300
02DFFFFE8FDFFFFF80
0CFFCBFFFFFFDBFFE1
5FF7003EFFF909FF40
8FE00008FFF15FF700
8FE00007FFF2EF9000
7FF3000CFFFDFB0500
2FFD65BFFFFFF59F90
07FFFFFFEFFFFFFFD1
006DFFE71D4CFFF910
000022000000121000
ENDCHAR
STARTCHAR ccedilla
ENCODING 231
SWIDTH 521 0
DWIDTH 9 0
BBX 9 14 0 -4
BITMAP
0006BB8200
01CFFFFE50
0BFFCBFFD0
4FF8002D30
8FF0000100
9FD0000000
7FF2000500
1EFD64AF70
06FFFFFFC0
004DFFE810
0000B90000
0001BF6000
000A9F9000
000BFD2000
ENDCHAR
STARTCHAR egrave
ENCODING 232
SWIDTH 524 0
DWIDTH 9 0
BBX 9 16 0 -1
BITMAP
0005000000
007F800000
009FF90000
0003C70000
0000000000
0017BB9300
02DFFFFF60
0CFFCBFFD0
5FF70AFE30
8FE07FF500
8FD3FF7000
6FFDFA0500
1EFFE5AF80
06FFFFFFC0
005DFFE810
0000120000
ENDCHAR
STARTCHAR eacute
ENCODING 233
SWIDTH 524 0
DWIDTH 9 0
BBX 9 16 0 -1
BITMAP
0000004000
000006F900
00007FFA10
00005D5000
0000000000
0017BB9300
02DFFFFF60
0CFFCBFFD0
5FF70AFE30
8FE07FF500
8FD3FF7000
6FFDFA0500
1EFFE5AF80
06FFFFFFC0
005DFFE810
0000120000
ENDCHAR
STARTCHAR ecircumflex
ENCODING 234
SWIDTH 524 0
DWIDTH 9 0
BBX 9 15 0 -1
BITMAP
0000410000
0005FC1000
005FEFD100
001A158000
0017BB9300
02DFFFFF60
0CFFCBFFD0
5FF70AFE30
8FE07FF500
8FD3FF7000
6FFDFA0500
1EFFE5AF80
06FFFFFFC0
005DFFE810
0000120000
ENDCHAR
STARTCHAR edieresis
ENCODING 235
SWIDTH 524 0
DWIDTH 9 0
BBX 9 14 0 -1
BITMAP
006A14A200
00DF4AF600
0036026100
0017BB9300
02DFFFFF60
0CFFCBFFD0
5FF70AFE30
8FE07FF500
8FD3FF7000
6FFDFA0500
1EFFE5AF80
06FFFFFFC0
005DFFE810
0000120000
ENDCHAR
STARTCHAR igrave
ENCODING 236
SWIDTH 235 0
DWIDTH 4 0
BBX 5 14 -1 0
BITMAP
050000
5FA000
7FFA00
03B900
006620
01FF50
01FF50
01FF50
01FF50
01FF50
01FF50
01FF50
01FF50
01FF50
ENDCHAR
STARTCHAR iacute
ENCODING 237
SWIDTH 235 0
DWIDTH 4 0
BBX 5 14 0 0
BITMAP
000400
006F90
07FFA0
05D500
067200
1FF500
1FF500
1FF500
1FF500
1FF500
1FF500
1FF500
1FF500
1FF500
ENDCHAR
STARTCHAR icircumflex
ENCODING 238
SWIDTH 235 0
DWIDTH 4 0
BBX 6 14 -1 0
BITMAP
001300
02DE40
1DFEF4
0842B1
006620
01FF50
01FF50
01FF50
01FF50
01FF50
01FF50
01FF50
01FF50
01FF50
ENDCHAR
STARTCHAR idieresis
ENCODING 239
SWIDTH 235 0
DWIDTH 4 0
BBX 6 13 -1 0
BITMAP
3B41A5
8F94FC
172063
006620
01FF50
01FF50
01FF50
01FF50
01FF50
01FF50
01FF50
01FF50
01FF50
ENDCHAR
STARTCHAR eth
ENCODING 240
SWIDTH 581 0
DWIDTH 10 0
BBX 10 15 0 -1
BITMAP
0002AB9000
0069EFFA97
00AFFFFFFB
004669FFA5
00059AFFC0
02CFFFFFF3
0CFFCBEFF8
5FF7002EFC
8FE00008FE
9FD00007FF
6FF3000BFC
1EFE65AFF7
06FFFFFFB0
004DFFE810
0000120000
ENDCHAR
STARTCHAR ntilde
ENCODING 241
SWIDTH 562 0
DWIDTH 10 0
BBX 10 14 0 0
BITMAP
0005403500
009FFACF00
00BF9FFC00
0059047200
0403885000
1FBFFFFB10
1FFFEDFFA0
1FFB108FF2
1FF5002FF5
1FF5001FF5
1FF5001FF5
1FF5001FF5
1FF5001FF5
1FF5001FF5
ENDCHAR
STARTCHAR ograve
ENCODING 242
SWIDTH 579 0
DWIDTH 10 0
BBX 10 16 0 -1
BITMAP
0005000000
005FA00000
007FFB0000
0002BA0000
0000000000
0016BB9300
02DFFFFF70
0CFFCBEFF4
5FF7002EFB
8FE00008FE
9FD00007FF
6FF3000BFC
1EFE65AFF7
06FFFFFFB0
004DFFE810
0000120000
ENDCHAR
STARTCHAR oacute
ENCODING 243
SWIDTH 579 0
DWIDTH 10 0
BBX 10 16 0 -1
BITMAP
0000004100
000006F900
00007FFB10
00005D5000
0000000000
0016BB9300
02DFFFFF70
0CFFCBEFF4
5FF7002EFB
8FE00008FE
9FD00007FF
6FF3000BFC
1EFE65AFF7
06FFFFFFB0
004DFFE810
0000120000
ENDCHAR
STARTCHAR ocircumflex
ENCODING 244
SWIDTH 579 0
DWIDTH 10 0
BBX 10 15 0 -1
BITMAP
0000130000
0002DF5000
001DFEF500
000751B100
0016BB9300
02DFFFFF70
0CFFCBEFF4
5FF7002EFB
8FE00008FE
9FD00007FF
6FF3000BFC
1EFE65AFF7
06FFFFFFB0
004DFFE810
0000120000
ENDCHAR
STARTCHAR otilde
ENCODING 245
SWIDTH 579 0
DWIDTH 10 0
BBX 10 15 0 -1
BITMAP
0004503600
007FFABF10
00AF9FFD00
0059137200
0016BB9300
02DFFFFF70
0CFFCBEFF4
5FF7002EFB
8FE00008FE
9FD00007FF
6FF3000BFC
1EFE65AFF7
06FFFFFFB0
004DFFE810
0000120000
ENDCHAR
STARTCHAR odieresis
ENCODING 246
SWIDTH 579 0
DWIDTH 10 0
BBX 10 14 0 -1
BITMAP
002B419600
007FA3FD00
0016206300
0016BB9300
02DFFFFF70
0CFFCBEFF4
5FF7002EFB
8FE00008FE
9FD00007FF
6FF3000BFC
1EFE65AFF7
06FFFFFFB0
004DFFE810
0000120000
ENDCHAR
STARTCHAR divide
ENCODING 247
SWIDTH 494 0
DWIDTH 9 0
BBX 9 9 0 2
BITMAP
0004B40000
000CFA0000
0005B40000
2888888810
4FFFFFFF20
3CCCCCCC20
0003920000
000BFA0000
0006D50000
ENDCHAR
STARTCHAR oslash
ENCODING 248
SWIDTH 579 0
DWIDTH 10 0
BBX 10 11 0 -1
BITMAP
0016BB9687
02DFFFFFF4
0CFFCBFFF3
5FF70AFFFB
8FE06FEAFE
9FD3FF47FF
7FFDF80BFC
1EFFD5AFF7
09FFFFFFB0
3FFDFFE810
0000120000
ENDCHAR
STARTCHAR ugrave
ENCODING 249
SWIDTH 562 0
DWIDTH 10 0
BBX 10 15 0 -1
BITMAP
0005000000
008F800000
009FF80000
0004D70000
1661001661
3FF3003FF3
3FF3003FF3
3FF3003FF3
3FF3003FF3
3FF3003FF3
2FF5006FF3
0DFD55EFF3
04FFFFFFF3
005DFFC3B3
0000220000
ENDCHAR
STARTCHAR uacute
ENCODING 250
SWIDTH 562 0
DWIDTH 10 0
BBX 10 15 0 -1
BITMAP
0000005000
000008F800
00008FF900
00007D4000
1661001661
3FF3003FF3
3FF3003FF3
3FF3003FF3
3FF3003FF3
3FF3003FF3
2FF5006FF3
0DFD55EFF3
04FFFFFFF3
005DFFC3B3
0000220000
ENDCHAR
STARTCHAR ucircumflex
ENCODING 251
SWIDTH 562 0
DWIDTH 10 0
BBX 10 15 0 -1
BITMAP
0000220000
0003EE3000
002EEEE200
000933A000
1661001661
3FF3003FF3
3FF3003FF3
3FF3003FF3
3FF3003FF3
3FF3003FF3
2FF5006FF3
0DFD55EFF3
04FFFFFFF3
005DFFC3B3
0000220000
ENDCHAR
STARTCHAR udieresis
ENCODING 252
SWIDTH 562 0
DWIDTH 10 0
BBX 10 14 0 -1
BITMAP
004B22A400
00AF76FA00
0026116200
1661001661
3FF3003FF3
3FF3003FF3
3FF3003FF3
3FF3003FF3
3FF3003FF3
2FF5006FF3
0DFD55EFF3
04FFFFFFF3
005DFFC3B3
0000220000
ENDCHAR
STARTCHAR yacute
ENCODING 253
SWIDTH 562 0
DWIDTH 10 0
BBX 10 18 0 -4
BITMAP
0000005000
000008F700
00009FF900
00007C3000
1661001661
3FF3003FF3
3FF3003FF3
3FF3003FF3
3FF3003FF3
3FF3003FF3
2FF5006FF3
0DFD55EFF3
04FFFFFFF3
005DFFEFF2
000023DFD0
000ADFFF50
000CFFE600
0007972000
ENDCHAR
STARTCHAR thorn
ENCODING 254
SWIDTH 608 0
DWIDTH 11 0
BBX 11 18 0 -4
BITMAP
055200000000
1FF700000000
1FF700000000
1FF700000000
1FF87AA60000
1FFFFFFFD200
1FFFEBCFFC00
1FFD2008FF40
1FF70000FF70
1FF60000EF80
1FFB0003FF60
1FFFA46EFE10
1FFFFFFFF700
1FFBEFFD6000
1FF503200000
1FF500000000
1FF500000000
199300000000
ENDCHAR
STARTCHAR ydieresis
ENCODING 255
SWIDTH 562 0
DWIDTH 10 0
BBX 10 17 0 -4
BITMAP
004B22A400
00AF76FA00
0026116200
1661001661
3FF3003FF3
3FF3003FF3
3FF3003FF3
3FF3003FF3
3FF3003FF3
2FF5006FF3
0DFD55EFF3
04FFFFFFF3
005DFFEFF2
000023DFD0
000ADFFF50
000CFFE600
0007972000
ENDCHAR
STARTCHAR Amacron
ENCODING 256
SWIDTH 673 0
DWIDTH 12 0
BBX 11 16 1 0
BITMAP
001777720000
003FFFF40000
001555510000
000588610000
03DFFFFE4000
1EFFFFFFE200
8FF8107FFA00
DFC0000AFF00
EF800006FF10
FF800006FF20
FF800006FF20
FFFFFFFFFF20
FFFFFFFFFF20
FFC7777AFF20
FF800006FF20
FF800006FF20
ENDCHAR
STARTCHAR amacron
ENCODING 257
SWIDTH 607 0
DWIDTH 11 0
BBX 10 14 0 -1
BITMAP
0017777200
002FFFF500
0015555200
0017BB8104
02DFFFFE8F
0CFFCBFFFF
5FF7003EFF
8FE00008FF
8FE00007FF
7FF3000CFF
2FFD65BFFF
07FFFFFFEF
006DFFE71D
0000220000
ENDCHAR
STARTCHAR Abreve
ENCODING 258
SWIDTH 673 0
DWIDTH 12 0
BBX 11 17 1 0
BITMAP
000322200000
000FBBD00000
000AFF900000
000034000000
000588610000
03DFFFFE4000
1EFFFFFFE200
8FF8107FFA00
DFC0000AFF00
EF800006FF10
FF800006FF20
FF800006FF20
FFFFFFFFFF20
FFFFFFFFFF20
FFC7777AFF20
FF800006FF20
FF800006FF20
ENDCHAR
STARTCHAR abreve
ENCODING 259
SWIDTH 607 0
DWIDTH 11 0
BBX 10 15 0 -1
BITMAP
0003223000
000EBAE000
0009FFA000
0000340000
0017BB8104
02DFFFFE8F
0CFFCBFFFF
5FF7003EFF
8FE00008FF
8FE00007FF
7FF3000CFF
2FFD65BFFF
07FFFFFFEF
006DFFE71D
0000220000
ENDCHAR
STARTCHAR Aogonek
ENCODING 260
SWIDTH 673 0
DWIDTH 12 0
BBX 11 17 1 -4
BITMAP
000588610000
03DFFFFE4000
1EFFFFFFE200
8FF8107FFA00
DFC0000AFF00
EF800006FF10
FF800006FF20
FF800006FF20
FFFFFFFFFF20
FFFFFFFFFF20
FFC7777AFF20
FF800006FF20
FF800006FF20
00000008E100
0000000FDA20
00000009FF60
000000002100
ENDCHAR
STARTCHAR aogonek
ENCODING 261
SWIDTH 607 0
DWIDTH 11 0
BBX 12 14 0 -4
BITMAP
0017BB810400
02DFFFFE8F00
0CFFCBFFFF00
5FF7003EFF00
8FE00008FF00
8FE00007FF00
7FF3000CFF00
2FFD65BFFF00
07FFFFFFEF00
006DFFE72F00
00002201CA00
00000004FA90
00000001DFE3
000000000200
ENDCHAR
STARTCHAR Cacute
ENCODING 262
SWIDTH 640 0
DWIDTH 12 0
BBX 12 19 0 -1
BITMAP
000000014000
0000001CE300
000001DFE500
000000CA1000
000000000000
000038BB9400
001BFFFFFFB1
01DFFFCCFFC0
09FFB1001A30
1FFB00000000
5FF300000000
7FF000000000
6FF100000000
4FF700000000
0DFE30000300
04FFF9558E70
006FFFFFFFE1
0003BFFFFB40
000001331000
ENDCHAR
STARTCHAR cacute
ENCODING 263
SWIDTH 521 0
DWIDTH 9 0
BBX 9 16 0 -1
BITMAP
0000005000
000008F700
00009FF900
00008C3000
0000000000
0006BB8200
01CFFFFE50
0BFFCBFFD0
4FF8002D30
8FF0000100
9FD0000000
7FF2000500
2FFD64AF70
06FFFFFFC0
005DFFE810
0000120000
ENDCHAR
STARTCHAR Ccircumflex
ENCODING 264
SWIDTH 640 0
DWIDTH 12 0
BBX 12 18 0 -1
BITMAP
000000400000
000007FA1000
00007FDFB000
00002A176000
000038BB9400
001BFFFFFFB1
01DFFFCCFFC0
09FFB1001A30
1FFB00000000
5FF300000000
7FF000000000
6FF100000000
4FF700000000
0DFE30000300
04FFF9558E70
006FFFFFFFE1
0003BFFFFB40
000001331000
ENDCHAR
STARTCHAR ccircumflex
ENCODING 265
SWIDTH 521 0
DWIDTH 9 0
BBX 9 15 0 -1
BITMAP
0000130000
0002DE4000
001DFEF400
000842B100
0006BB8200
01CFFFFE50
0BFFCBFFD0
4FF8002D30
8FF0000100
9FD0000000
7FF2000500
2FFD64AF70
06FFFFFFC0
005DFFE810
0000120000
ENDCHAR
STARTCHAR Cdotaccent
ENCODING 266
SWIDTH 640 0
DWIDTH 12 0
BBX 12 17 0 -1
BITMAP
000001C90000
000002FE0000
000000320000
000038BB9400
001BFFFFFFB1
01DFFFCCFFC0
09FFB1001A30
1FFB00000000
5FF300000000
7FF000000000
6FF100000000
4FF700000000
0DFE30000300
04FFF9558E70
006FFFFFFFE1
0003BFFFFB40
000001331000
ENDCHAR
STARTCHAR cdotaccent
ENCODING 267
SWIDTH 521 0
DWIDTH 9 0
BBX 9 14 0 -1
BITMAP
00008C2000
0000CF4000
0000240000
0006BB8200
01CFFFFE50
0BFFCBFFD0
4FF8002D30
8FF0000100
9FD0000000
7FF2000500
2FFD64AF70
06FFFFFFC0
005DFFE810
0000120000
ENDCHAR
STARTCHAR Ccaron
ENCODING 268
SWIDTH 640 0
DWIDTH 12 0
BBX 12 18 0 -1
BITMAP
000007025000
00004FBDE100
000007FF5000
000000640000
000038BB9400
001BFFFFFFB1
01DFFFCCFFC0
09FFB1001A30
1FFB00000000
5FF300000000
7FF000000000
6FF100000000
4FF700000000
0DFE30000300
04FFF9558E70
006FFFFFFFE1
0003BFFFFB40
000001331000
ENDCHAR
STARTCHAR ccaron
ENCODING 269
SWIDTH 521 0
DWIDTH 9 0
BBX 9 15 0 -1
BITMAP
0005206000
001EEBF500
0003EF9000
0000270000
0006BB8200
01CFFFFE50
0BFFCBFFD0
4FF8002D30
8FF0000100
9FD0000000
7FF2000500
2FFD64AF70
06FFFFFFC0
005DFFE810
0000120000
ENDCHAR
STARTCHAR Dcaron
ENCODING 270
SWIDTH 653 0
DWIDTH 12 0
BBX 11 17 1 0
BITMAP
000702500000
004FBDE10000
0007FF500000
000064000000
899986100000
CFFFFFE70000
CFFEFFFF9000
CFB004DFF500
CFB0002EFC00
CFB00007FF10
CFB00004FF30
CFB00005FF20
CFB0000CFE00
CFB0009FF800
CFD89DFFD100
CFFFFFFC2000
CFFFEC610000
ENDCHAR
STARTCHAR dcaron
ENCODING 271
SWIDTH 740 0
DWIDTH 13 0
BBX 14 15 0 -1
BITMAP
00000001220000
00000006FF0570
00000006FF1FF4
00000006FF08F3
0016BB87FF05B0
02DFFFFFFF0000
0CFFCBFFFF0000
5FF7003EFF0000
8FE00008FF0000
9FD00007FF0000
7FF3000CFF0000
1EFE65BFFF0000
06FFFFFFEF0000
005DFFE61D0000
00001200000000
ENDCHAR
STARTCHAR Dcroat
ENCODING 272
SWIDTH 672 0
DWIDTH 12 0
BBX 12 13 0 0
BITMAP
049999720000
07FFFFFFA100
07FFEEFFFD10
07FF102BFFA0
07FF1000AFF2
8CFF94002FF7
EFFFF8000EF9
BEFFD6001FF7
07FF10006FF5
07FF1004EFD0
07FF88BFFF40
07FFFFFFE500
07FFFFD82000
ENDCHAR
STARTCHAR dcroat
ENCODING 273
SWIDTH 606 0
DWIDTH 11 0
BBX 11 15 0 -1
BITMAP
000000012200
0000004CFF90
0000006FFFE0
0000004DFFB0
0016BB87FF00
02DFFFFFFF00
0CFFCBFFFF00
5FF7003EFF00
8FE00008FF00
9FD00007FF00
7FF3000CFF00
1EFE65BFFF00
06FFFFFFEF00
005DFFE61D00
000012000000
ENDCHAR
STARTCHAR Emacron
ENCODING 274
SWIDTH 578 0
DWIDTH 10 0
BBX 9 16 1 0
BITMAP
0047777000
008FFFE000
0035555000
8999999970
CFFFFFFFC0
CFFEEEEEB0
CFA0000000
CFA0000000
CFD8887000
CFFFFFC000
CFFFFFC000
CFA0000000
CFA0000000
CFD8888860
CFFFFFFFC0
CFFFFFFFC0
ENDCHAR
STARTCHAR emacron
ENCODING 275
SWIDTH 524 0
DWIDTH 9 0
BBX 9 14 0 -1
BITMAP
0017777200
002FFFF500
0015555200
0017BB9300
02DFFFFF60
0CFFCBFFD0
5FF70AFE30
8FE07FF500
8FD3FF7000
6FFDFA0500
1EFFE5AF80
06FFFFFFC0
005DFFE810
0000120000
ENDCHAR
STARTCHAR Ebreve
ENCODING 276
SWIDTH 578 0
DWIDTH 10 0
BBX 9 17 1 0
BITMAP
0013131000
007F7F6000
003EFE2000
0001410000
8999999970
CFFFFFFFC0
CFFEEEEEB0
CFA0000000
CFA0000000
CFD8887000
CFFFFFC000
CFFFFFC000
CFA0000000
CFA0000000
CFD8888860
CFFFFFFFC0
CFFFFFFFC0
ENDCHAR
STARTCHAR ebreve
ENCODING 277
SWIDTH 524 0
DWIDTH 9 0
BBX 9 15 0 -1
BITMAP
0003222000
000FABD000
000AFF9000
0000330000
0017BB9300
02DFFFFF60
0CFFCBFFD0
5FF70AFE30
8FE07FF500
8FD3FF7000
6FFDFA0500
1EFFE5AF80
06FFFFFFC0
005DFFE810
0000120000
ENDCHAR
STARTCHAR Edotaccent
ENCODING 278
SWIDTH 578 0
DWIDTH 10 0
BBX 9 16 1 0
BITMAP
0004D50000
0007F90000
0000410000
8999999970
CFFFFFFFC0
CFFEEEEEB0
CFA0000000
CFA0000000
CFD8887000
CFFFFFC000
CFFFFFC000
CFA0000000
CFA0000000
CFD8888860
CFFFFFFFC0
CFFFFFFFC0
ENDCHAR
STARTCHAR edotaccent
ENCODING 279
SWIDTH 524 0
DWIDTH 9 0
BBX 9 14 0 -1
BITMAP
0000AC1000
0000EF2000
0000230000
0017BB9300
02DFFFFF60
0CFFCBFFD0
5FF70AFE30
8FE07FF500
8FD3FF7000
6FFDFA0500
1EFFE5AF80
06FFFFFFC0
005DFFE810
0000120000
ENDCHAR
STARTCHAR Eogonek
ENCODING 280
SWIDTH 578 0
DWIDTH 10 0
BBX 9 17 1 -4
BITMAP
8999999970
CFFFFFFFC0
CFFEEEEEB0
CFA0000000
CFA0000000
CFD8887000
CFFFFFC000
CFFFFFC000
CFA0000000
CFA0000000
CFD8888860
CFFFFFFFC0
CFFFFFFFC0
000008D100
00000FDA20
000009FF60
0000002100
ENDCHAR
STARTCHAR eogonek
ENCODING 281
SWIDTH 524 0
DWIDTH 9 0
BBX 9 14 0 -4
BITMAP
0017BB9300
02DFFFFF60
0CFFCBFFD0
5FF70AFE30
8FE07FF500
8FD3FF7000
6FFDFA0500
1EFFE5AF80
06FFFFFFC0
005DFFF910
00002CB000
00002FB910
00000CFE40
0000002000
ENDCHAR
STARTCHAR Ecaron
ENCODING 282
SWIDTH 578 0
DWIDTH 10 0
BBX 9 17 1 0
BITMAP
0025052000
009FAFB000
001BFD2000
0000810000
8999999970
CFFFFFFFC0
CFFEEEEEB0
CFA0000000
CFA0000000
CFD8887000
CFFFFFC000
CFFFFFC000
CFA0000000
CFA0000000
CFD8888860
CFFFFFFFC0
CFFFFFFFC0
ENDCHAR
STARTCHAR ecaron
ENCODING 283
SWIDTH 524 0
DWIDTH 9 0
BBX 9 15 0 -1
BITMAP
0006116000
002FDCF400
0004EF7000
0000360000
0017BB9300
02DFFFFF60
0CFFCBFFD0
5FF70AFE30
8FE07FF500
8FD3FF7000
6FFDFA0500
1EFFE5AF80
06FFFFFFC0
005DFFE810
0000120000
ENDCHAR
STARTCHAR Gcircumflex
ENCODING 284
SWIDTH 665 0
DWIDTH 12 0
BBX 12 18 0 -1
BITMAP
000000400000
000006FB1000
00006FDFC000
00002A167000
000038AB8300
001AFFFFFFA1
01CFFFCCFFC0
09FFB2002B30
1FFC00000000
5FF300000000
7FF000001441
6FF100004FF3
4FF700004FF3
0DFE30004FF3
04FFF8449FF3
006FFFFFFFF2
0003BFFFFB30
000001331000
ENDCHAR
STARTCHAR gcircumflex
ENCODING 285
SWIDTH 607 0
DWIDTH 11 0
BBX 10 18 0 -4
BITMAP
0000130000
0002DE4000
001DFEF400
000852B100
0006BB8104
02DFFFFE8F
0CFFCBFFFF
4FF7003EFF
8FE00008FF
8FE00007FF
7FF3000CFF
2FFD65BFFF
07FFFFFFFF
005DFFEDFE
0000123EFA
0000CDFFF3
0000FFFD40
0000996100
ENDCHAR
STARTCHAR Gbreve
ENCODING 286
SWIDTH 665 0
DWIDTH 12 0
BBX 12 18 0 -1
BITMAP
000003132000
00002F9DB000
00000CFF7000
000000430000
000038AB8300
001AFFFFFFA1
01CFFFCCFFC0
09FFB2002B30
1FFC00000000
5FF300000000
7FF000001441
6FF100004FF3
4FF700004FF3
0DFE30004FF3
04FFF8449FF3
006FFFFFFFF2
0003BFFFFB30
000001331000
ENDCHAR
STARTCHAR gbreve
ENCODING 287
SWIDTH 607 0
DWIDTH 11 0
BBX 10 18 0 -4
BITMAP
0002213000
000CD9F100
0007FFC000
0000340000
0006BB8104
02DFFFFE8F
0CFFCBFFFF
4FF7003EFF
8FE00008FF
8FE00007FF
7FF3000CFF
2FFD65BFFF
07FFFFFFFF
005DFFEDFE
0000123EFA
0000CDFFF3
0000FFFD40
0000996100
ENDCHAR
STARTCHAR Gdotaccent
ENCODING 288
SWIDTH 665 0
DWIDTH 12 0
BBX 12 17 0 -1
BITMAP
000002D70000
000005FB0000
000000410000
000038AB8300
001AFFFFFFA1
01CFFFCCFFC0
09FFB2002B30
1FFC00000000
5FF300000000
7FF000001441
6FF100004FF3
4FF700004FF3
0DFE30004FF3
04FFF8449FF3
006FFFFFFFF2
0003BFFFFB30
000001331000
ENDCHAR
STARTCHAR gdotaccent
ENCODING 289
SWIDTH 607 0
DWIDTH 11 0
BBX 10 17 0 -4
BITMAP
00009C1000
0000EF2000
0000230000
0006BB8104
02DFFFFE8F
0CFFCBFFFF
4FF7003EFF
8FE00008FF
8FE00007FF
7FF3000CFF
2FFD65BFFF
07FFFFFFFF
005DFFEDFE
0000123EFA
0000CDFFF3
0000FFFD40
0000996100
ENDCHAR
STARTCHAR Gcommaaccent
ENCODING 290
SWIDTH 665 0
DWIDTH 12 0
BBX 12 18 0 -5
BITMAP
000038AB8300
001AFFFFFFA1
01CFFFCCFFC0
09FFB2002B30
1FFC00000000
5FF300000000
7FF000001441
6FF100004FF3
4FF700004FF3
0DFE30004FF3
04FFF8449FF3
006FFFFFFFF2
0003BFFFFB30
000001431000
000005FA0000
000006FD0000
000000A90000
000000610000
ENDCHAR
STARTCHAR gcommaaccent
ENCODING 291
SWIDTH 607 0
DWIDTH 11 0
BBX 10 19 0 -4
BITMAP
0000110000
0000A80000
0000FD1000
0001FF3000
0000340000
0006BB8104
02DFFFFE8F
0CFFCBFFFF
4FF7003EFF
8FE00008FF
8FE00007FF
7FF3000CFF
2FFD65BFFF
07FFFFFFFF
005DFFEDFE
0000123EFA
0000CDFFF3
0000FFFD40
0000996100
ENDCHAR
STARTCHAR Hcircumflex
ENCODING 292
SWIDTH 689 0
DWIDTH 12 0
BBX 11 17 1 0
BITMAP
000013000000
0001CF500000
001DFEF50000
000751B10000
896000029920
CFA00004FF40
CFA00004FF40
CFA00004FF40
CFA00004FF40
CFD8888AFF40
CFFFFFFFFF40
CFFFFFFFFF40
CFA00004FF40
CFA00004FF40
CFA00004FF40
CFA00004FF40
CFA00004FF40
ENDCHAR
STARTCHAR hcircumflex
ENCODING 293
SWIDTH 562 0
DWIDTH 10 0
BBX 10 14 0 0
BITMAP
0221013000
1FF52DE400
1FF6DFEF40
1FF5842B10
1FF6785000
1FFFFFFB10
1FFFEDFFA0
1FFB108FF2
1FF5002FF5
1FF5001FF5
1FF5001FF5
1FF5001FF5
1FF5001FF5
1FF5001FF5
ENDCHAR
STARTCHAR Hbar
ENCODING 294
SWIDTH 689 0
DWIDTH 12 0
BBX 13 13 0 0
BITMAP
08960000299200
0DFB11114FF400
BFFFFFFFFFFF20
BFFFFFFFFFFF20
4DFC55558FF810
0CFD8888AFF400
0CFFFFFFFFF400
0CFFFFFFFFF400
0CFA00004FF400
0CFA00004FF400
0CFA00004FF400
0CFA00004FF400
0CFA00004FF400
ENDCHAR
STARTCHAR hbar
ENCODING 295
SWIDTH 562 0
DWIDTH 10 0
BBX 10 14 0 0
BITMAP
0221000000
9FFB100000
FFFF200000
9FFB100000
1FF6785000
1FFFFFFB10
1FFFEDFFA0
1FFB108FF2
1FF5002FF5
1FF5001FF5
1FF5001FF5
1FF5001FF5
1FF5001FF5
1FF5001FF5
ENDCHAR
STARTCHAR Itilde
ENCODING 296
SWIDTH 270 0
DWIDTH 5 0
BBX 7 17 -1 0
BITMAP
03512510
4FFD9F50
6FADFF20
29327400
00896000
00CFA000
00CFA000
00CFA000
00CFA000
00CFA000
00CFA000
00CFA000
00CFA000
00CFA000
00CFA000
00CFA000
00CFA000
ENDCHAR
STARTCHAR itilde
ENCODING 297
SWIDTH 235 0
DWIDTH 4 0
BBX 6 14 -1 0
BITMAP
054035
8FFACF
BF9FFC
591472
006620
01FF50
01FF50
01FF50
01FF50
01FF50
01FF50
01FF50
01FF50
01FF50
ENDCHAR
STARTCHAR Imacron
ENCODING 298
SWIDTH 270 0
DWIDTH 5 0
BBX 5 16 0 0
BITMAP
677750
CFFFA0
455540
089600
0CFA00
0CFA00
0CFA00
0CFA00
0CFA00
0CFA00
0CFA00
0CFA00
0CFA00
0CFA00
0CFA00
0CFA00
ENDCHAR
STARTCHAR imacron
ENCODING 299
SWIDTH 235 0
DWIDTH 4 0
BBX 6 13 -1 0
BITMAP
177773
1FFFF6
055552
006620
01FF50
01FF50
01FF50
01FF50
01FF50
01FF50
01FF50
01FF50
01FF50
ENDCHAR
STARTCHAR Ibreve
ENCODING 300
SWIDTH 270 0
DWIDTH 5 0
BBX 5 17 0 0
BITMAP
131310
7F7F60
3EFE30
014200
089600
0CFA00
0CFA00
0CFA00
0CFA00
0CFA00
0CFA00
0CFA00
0CFA00
0CFA00
0CFA00
0CFA00
0CFA00
ENDCHAR
STARTCHAR ibreve
ENCODING 301
SWIDTH 235 0
DWIDTH 4 0
BBX 5 13 0 0
BITMAP
221300
CD9F10
7FFC00
09A200
1FF500
1FF500
1FF500
1FF500
1FF500
1FF500
1FF500
1FF500
1FF500
ENDCHAR
STARTCHAR Iogonek
ENCODING 302
SWIDTH 270 0
DWIDTH 5 0
BBX 5 17 0 -4
BITMAP
089600
0CFA00
0CFA00
0CFA00
0CFA00
0CFA00
0CFA00
0CFA00
0CFA00
0CFA00
0CFA00
0CFA00
0CFA00
1D8000
6FA800
2EFD20
012000
ENDCHAR
STARTCHAR iogonek
ENCODING 303
SWIDTH 235 0
DWIDTH 4 0
BBX 4 18 0 -4
BITMAP
0671
5FF9
5FF9
0781
0662
1FF5
1FF5
1FF5
1FF5
1FF5
1FF5
1FF5
1FF5
1FF5
3E50
9F96
4FFB
0120
ENDCHAR
STARTCHAR Idotaccent
ENCODING 304
SWIDTH 270 0
DWIDTH 5 0
BBX 3 16 1 0
BITMAP
5D40
9F70
1400
8960
CFA0
CFA0
CFA0
CFA0
CFA0
CFA0
CFA0
CFA0
CFA0
CFA0
CFA0
CFA0
ENDCHAR
STARTCHAR dotlessi
ENCODING 305
SWIDTH 235 0
DWIDTH 4 0
BBX 4 10 0 0
BITMAP
0662
1FF5
1FF5
1FF5
1FF5
1FF5
1FF5
1FF5
1FF5
1FF5
ENDCHAR
STARTCHAR IJ
ENCODING 306
SWIDTH 687 0
DWIDTH 12 0
BBX 11 13 1 0
BITMAP
896000029930
CFA00003FF50
CFA00003FF50
CFA00003FF50
CFA00003FF50
CFA00003FF50
CFA00003FF50
CFA00003FF50
CFA00004FF40
CFA0000BFF10
CFA0A9DFF900
CFA0FFFFC100
CFA0DFD70000
ENDCHAR
STARTCHAR ij
ENCODING 307
SWIDTH 474 0
DWIDTH 9 0
BBX 8 18 0 -4
BITMAP
06710382
5FF91FFD
5FF91FFE
07810493
06620564
1FF50CFA
1FF50CFA
1FF50CFA
1FF50CFA
1FF50CFA
1FF50CFA
1FF50CFA
1FF50CF9
1FF50EF8
00009FF4
05CEFFB0
06FFFB10
04984000
ENDCHAR
STARTCHAR Jcircumflex
ENCODING 308
SWIDTH 416 0
DWIDTH 8 0
BBX 8 17 0 0
BITMAP
00001300
0002DE40
001DFEF4
000852B1
00009940
0000FF70
0000FF70
0000FF70
0000FF70
0000FF70
0000FF70
0000FF70
0002FF60
000AFF30
98CFFB00
CFFFD200
BFD81000
ENDCHAR
STARTCHAR jcircumflex
ENCODING 309
SWIDTH 237 0
DWIDTH 4 0
BBX 8 18 -3 -4
BITMAP
00001300
0002DE40
001DFEF4
000852B1
00006620
0001FF60
0001FF60
0001FF60
0001FF60
0001FF60
0001FF60
0001FF60
0001FF60
0003FF40
001CFE10
8CFFF700
AFFF8000
69720000
ENDCHAR
STARTCHAR Kcommaaccent
ENCODING 310
SWIDTH 625 0
DWIDTH 11 0
BBX 11 18 1 -5
BITMAP
896000089910
CFA0007FF600
CFA003FFA000
CFA01DFD1000
CFA0AFF30000
CFA6FF700000
CFDFFFA00000
CFFFFFF40000
CFFF5EFC0000
CFF608FF5000
CFC001EFD000
CFA0006FF600
CFA0000DFE10
000010000000
0006F9000000
0007FC000000
0000B8000000
000061000000
ENDCHAR
STARTCHAR kcommaaccent
ENCODING 311
SWIDTH 539 0
DWIDTH 10 0
BBX 10 19 0 -5
BITMAP
0221000000
1FF5000000
1FF5000000
1FF5000000
1FF5001663
1FF500CFD1
1FF509FF30
1FF56FF600
1FF8FFB000
1FFFFFF200
1FFFEEFA00
1FFF57FF40
1FF801DFC0
1FF5006FF6
0000100000
0003FC0000
0004FF0000
00008B0000
0000420000
ENDCHAR
STARTCHAR kgreenlandic
ENCODING 312
SWIDTH 539 0
DWIDTH 10 0
BBX 10 10 0 0
BITMAP
1772001663
1FF500CFD1
1FF509FF30
1FF56FF600
1FF8FFB000
1FFFFFF200
1FFFEEFA00
1FFF57FF40
1FF801DFC0
1FF5006FF6
ENDCHAR
STARTCHAR Lacute
ENCODING 313
SWIDTH 562 0
DWIDTH 10 0
BBX 9 16 1 0
BITMAP
0000040000
0001BF4000
001CFE6000
896BA20000
CFA0000000
CFA0000000
CFA0000000
CFA0000000
CFA0000000
CFA0000000
CFA0000000
CFA0000000
CFA0000000
CFD8888880
CFFFFFFFF0
CFFFFFFFF0
ENDCHAR
STARTCHAR lacute
ENCODING 314
SWIDTH 235 0
DWIDTH 4 0
BBX 6 18 0 0
BITMAP
000140
001CF3
01CFE5
00CA10
023100
1FF500
1FF500
1FF500
1FF500
1FF500
1FF500
1FF500
1FF500
1FF500
1FF500
1FF500
1FF500
1FF500
ENDCHAR
STARTCHAR Lcommaaccent
ENCODING 315
SWIDTH 562 0
DWIDTH 10 0
BBX 9 18 1 -5
BITMAP
8960000000
CFA0000000
CFA0000000
CFA0000000
CFA0000000
CFA0000000
CFA0000000
CFA0000000
CFA0000000
CFA0000000
CFD8888880
CFFFFFFFF0
CFFFFFFFF0
0000100000
001DE20000
001EF30000
0005E00000
0003400000
ENDCHAR
STARTCHAR lcommaaccent
ENCODING 316
SWIDTH 235 0
DWIDTH 4 0
BBX 4 19 0 -5
BITMAP
0221
1FF5
1FF5
1FF5
1FF5
1FF5
1FF5
1FF5
1FF5
1FF5
1FF5
1FF5
1FF5
1FF5
0010
0DE2
0EF4
04E1
0250
ENDCHAR
STARTCHAR Lcaron
ENCODING 317
SWIDTH 562 0
DWIDTH 10 0
BBX 9 13 1 0
BITMAP
8960760000
CFA3FF2000
CFA0AF1000
CFA0790000
CFA0000000
CFA0000000
CFA0000000
CFA0000000
CFA0000000
CFA0000000
CFD8888880
CFFFFFFFF0
CFFFFFFFF0
ENDCHAR
STARTCHAR lcaron
ENCODING 318
SWIDTH 369 0
DWIDTH 7 0
BBX 7 14 0 0
BITMAP
02210000
1FF53820
1FF5AF90
1FF54E80
1FF51D20
1FF50000
1FF50000
1FF50000
1FF50000
1FF50000
1FF50000
1FF50000
1FF50000
1FF50000
ENDCHAR
STARTCHAR Ldot
ENCODING 319
SWIDTH 745 0
DWIDTH 13 0
BBX 12 13 1 0
BITMAP
896000000000
CFA000000000
CFA000000000
CFA000000000
CFA000000000
CFA0000019A1
CFA000006FF7
CFA000003EF4
CFA000000120
CFA000000000
CFD888888000
CFFFFFFFF000
CFFFFFFFF000
ENDCHAR
STARTCHAR ldotaccent
ENCODING 320
SWIDTH 463 0
DWIDTH 8 0
BBX 8 14 0 0
BITMAP
02210000
1FF50000
1FF50000
1FF50000
1FF50000
1FF50000
1FF51AA1
1FF57FF6
1FF53FF3
1FF50110
1FF50000
1FF50000
1FF50000
1FF50000
ENDCHAR
STARTCHAR Lslash
ENCODING 321
SWIDTH 585 0
DWIDTH 11 0
BBX 11 13 0 0
BITMAP
049910000000
06FF20000000
06FF20000000
06FF20000000
06FF87000000
06FFF8000000
4DFFE4000000
DFFF20000000
CCFF20000000
16FF20000000
06FF98888830
06FFFFFFFF60
06FFFFFFFF60
ENDCHAR
STARTCHAR lslash
ENCODING 322
SWIDTH 319 0
DWIDTH 6 0
BBX 6 14 0 0
BITMAP
012200
06FF00
06FF00
06FF00
06FF00
06FF77
06FFF9
4CFFE5
CFFF10
CCFF00
16FF00
06FF00
06FF00
06FF00
ENDCHAR
STARTCHAR Nacute
ENCODING 323
SWIDTH 689 0
DWIDTH 12 0
BBX 11 17 1 0
BITMAP
000000410000
000006F90000
00007FFB1000
00005D500000
899100029920
CFF80004FF40
CFFF2004FF40
CFFFA004FF40
CFFFF404FF40
CFBCFD04FF40
CFA4FF74FF40
CFA0AFE5FF40
CFA02FFDFF40
CFA008FFFF40
CFA001DFFF40
CFA0005FFF40
CFA0000BFF40
ENDCHAR
STARTCHAR nacute
ENCODING 324
SWIDTH 562 0
DWIDTH 10 0
BBX 10 15 0 0
BITMAP
0000002300
000003ED10
00003EFD30
00002D8000
0000000000
0403885000
1FBFFFFB10
1FFFEDFFA0
1FFB108FF2
1FF5002FF5
1FF5001FF5
1FF5001FF5
1FF5001FF5
1FF5001FF5
1FF5001FF5
ENDCHAR
STARTCHAR Ncommaaccent
ENCODING 325
SWIDTH 689 0
DWIDTH 12 0
BBX 11 18 1 -5
BITMAP
899100029920
CFF80004FF40
CFFF2004FF40
CFFFA004FF40
CFFFF404FF40
CFBCFD04FF40
CFA4FF74FF40
CFA0AFE5FF40
CFA02FFDFF40
CFA008FFFF40
CFA001DFFF40
CFA0005FFF40
CFA0000BFF40
000001000000
0000CF300000
0000DF600000
00003F200000
000025000000
ENDCHAR
STARTCHAR ncommaaccent
ENCODING 326
SWIDTH 562 0
DWIDTH 10 0
BBX 10 15 0 -5
BITMAP
0403885000
1FBFFFFB10
1FFFEDFFA0
1FFB108FF2
1FF5002FF5
1FF5001FF5
1FF5001FF5
1FF5001FF5
1FF5001FF5
1FF5001FF5
0000010000
0001DE2000
0001EF3000
00005E0000
0000340000
ENDCHAR
STARTCHAR Ncaron
ENCODING 327
SWIDTH 689 0
DWIDTH 12 0
BBX 11 17 1 0
BITMAP
000520600000
001EEBF50000
0003EF900000
000027000000
899100029920
CFF80004FF40
CFFF2004FF40
CFFFA004FF40
CFFFF404FF40
CFBCFD04FF40
CFA4FF74FF40
CFA0AFE5FF40
CFA02FFDFF40
CFA008FFFF40
CFA001DFFF40
CFA0005FFF40
CFA0000BFF40
ENDCHAR
STARTCHAR ncaron
ENCODING 328
SWIDTH 562 0
DWIDTH 10 0
BBX 10 14 0 0
BITMAP
0006116000
002FDCF300
0005FF7000
0000460000
0403885000
1FBFFFFB10
1FFFEDFFA0
1FFB108FF2
1FF5002FF5
1FF5001FF5
1FF5001FF5
1FF5001FF5
1FF5001FF5
1FF5001FF5
ENDCHAR
STARTCHAR napostrophe
ENCODING 329
SWIDTH 694 0
DWIDTH 13 0
BBX 12 13 0 0
BITMAP
580000000000
EF5000000000
7F4000000000
4C0401797100
000ABEFFFE40
000AFFFDFFE2
000AFF303EF8
000AFB000BFB
000AFB000AFB
000AFB000AFB
000AFB000AFB
000AFB000AFB
000AFB000AFB
ENDCHAR
STARTCHAR Eng
ENCODING 330
SWIDTH 689 0
DWIDTH 12 0
BBX 11 17 1 -4
BITMAP
899100029920
CFF80004FF40
CFFF2004FF40
CFFFA004FF40
CFFFF404FF40
CFBDFD04FF40
CFA4FF74FF40
CFA0AFE5FF40
CFA02FFDFF40
CFA008FFFF40
CFA001DFFF40
CFA0005FFF40
CFA0000CFF20
0000105EFC00
0001FEFFF400
0001FFFE5000
000089610000
ENDCHAR
STARTCHAR eng
ENCODING 331
SWIDTH 562 0
DWIDTH 10 0
BBX 10 14 0 -4
BITMAP
0403885000
1FBFFFFB10
1FFFEDFFA0
1FFB108FF2
1FF5002FF5
1FF5001FF5
1FF5001FF5
1FF5001FF5
1FF5001FF5
1FF5004FF4
000001CFE0
0009CFFF70
000BFFF700
0006972000
ENDCHAR
STARTCHAR Omacron
ENCODING 332
SWIDTH 777 0
DWIDTH 14 0
BBX 14 17 0 -1
BITMAP
00002777720000
00004FFFF30000
00001555510000
000038AA830000
001AFFFFFFA100
01CFFFCCFFFC10
09FFB1001BFF90
1FFB000000CFF1
5FF30000003FF5
7FF00000000FF7
6FF10000001FF6
4FF70000007FF4
0DFE300003EFD0
04FFF9559FFF40
006FFFFFFFF600
0003BFFFFB3000
00000133100000
ENDCHAR
STARTCHAR omacron
ENCODING 333
SWIDTH 579 0
DWIDTH 10 0
BBX 10 14 0 -1
BITMAP
0007777300
000FFFF700
0005555200
0016BB9300
02DFFFFF70
0CFFCBEFF4
5FF7002EFB
8FE00008FE
9FD00007FF
6FF3000BFC
1EFE65AFF7
06FFFFFFB0
004DFFE810
0000120000
ENDCHAR
STARTCHAR Obreve
ENCODING 334
SWIDTH 777 0
DWIDTH 14 0
BBX 14 18 0 -1
BITMAP
00000322300000
00000ECAF00000
000008FFA00000
00000034000000
000038AA830000
001AFFFFFFA100
01CFFFCCFFFC10
09FFB1001BFF90
1FFB000000CFF1
5FF30000003FF5
7FF00000000FF7
6FF10000001FF6
4FF70000007FF4
0DFE300003EFD0
04FFF9559FFF40
006FFFFFFFF600
0003BFFFFB3000
00000133100000
ENDCHAR
STARTCHAR obreve
ENCODING 335
SWIDTH 579 0
DWIDTH 10 0
BBX 10 15 0 -1
BITMAP
0002313000
000AE8F300
0005FFD100
0000241000
0016BB9300
02DFFFFF70
0CFFCBEFF4
5FF7002EFB
8FE00008FE
9FD00007FF
6FF3000BFC
1EFE65AFF7
06FFFFFFB0
004DFFE810
0000120000
ENDCHAR
STARTCHAR Ohungarumlaut
ENCODING 336
SWIDTH 777 0
DWIDTH 14 0
BBX 14 19 0 -1
BITMAP
00000040000000
000003FA1C4000
00001DFBAFE100
00005F95FE3000
00000401A20000
000038AA830000
001AFFFFFFA100
01CFFFCCFFFC10
09FFB1001BFF90
1FFB000000CFF1
5FF30000003FF5
7FF00000000FF7
6FF10000001FF6
4FF70000007FF4
0DFE300003EFD0
04FFF9559FFF40
006FFFFFFFF600
0003BFFFFB3000
00000133100000
ENDCHAR
STARTCHAR ohungarumlaut
ENCODING 337
SWIDTH 579 0
DWIDTH 10 0
BBX 10 16 0 -1
BITMAP
0000310000
0001DC1970
000BFD8FF4
002EC3EF60
0003108500
0016BB9300
02DFFFFF70
0CFFCBEFF4
5FF7002EFB
8FE00008FE
9FD00007FF
6FF3000BFC
1EFE65AFF7
06FFFFFFB0
004DFFE810
0000120000
ENDCHAR
STARTCHAR OE
ENCODING 338
SWIDTH 1125 0
DWIDTH 20 0
BBX 20 14 0 -1
BITMAP
000038AB840999999996
001AFFFFFFBFFFFFFFFA
01CFFFCCFFFFFEEEEEE9
09FFB1001BFFF8000000
1FFB000000CFF8000000
5FF30000003FFC888600
7FF00000000FFFFFFA00
6FF10000001FFFFFFA00
4FF70000007FF8000000
0DFE300003EFF8000000
04FFF9559FFFFC888885
006FFFFFFFFFFFFFFFFA
0003BFFFFB4FFFFFFFFA
00000133100000000000
ENDCHAR
STARTCHAR oe
ENCODING 339
SWIDTH 924 0
DWIDTH 17 0
BBX 17 11 0 -1
BITMAP
0016BB93005AB94000
02DFFFFF7BFFFFF900
0CFFCBEFFFFDAFFF20
5FF7002EFFA07FF500
8FE00008FF34FF8000
9FD00007FF2EFA0000
6FF3000BFFDFC14000
1EFE65AFFFFF68FA00
06FFFFFFCEFFFFFD20
004DFFE913BFFFA200
000012000001210000
ENDCHAR
STARTCHAR Racute
ENCODING 340
SWIDTH 651 0
DWIDTH 12 0
BBX 11 17 1 0
BITMAP
000001400000
00001BF30000
0001CFE50000
0000BA200000
8999A8610000
CFFFFFFE5000
CFFEEFFFF400
CFA0005FFC00
CFA00008FF20
CFA00005FF30
CFA00008FF10
CFA0017FFB00
CFFFFFFFF300
CFFFFFFF3000
CFD77AFF3000
CFA001EFA000
CFA0009FF200
ENDCHAR
STARTCHAR racute
ENCODING 341
SWIDTH 414 0
DWIDTH 7 0
BBX 8 14 0 0
BITMAP
00000500
00009F60
000AFF80
0008C300
04015661
1F8EFFF4
1FFFFFF4
1FFD3000
1FF60000
1FF50000
1FF50000
1FF50000
1FF50000
1FF50000
ENDCHAR
STARTCHAR Rcommaaccent
ENCODING 342
SWIDTH 651 0
DWIDTH 12 0
BBX 11 18 1 -5
BITMAP
899998610000
CFFFFFFE5000
CFFEEFFFF400
CFA0005FFC00
CFA00008FF20
CFA00005FF30
CFA00008FF10
CFA0017FFB00
CFFFFFFFF300
CFFFFFFF3000
CFD77AFF3000
CFA001EFA000
CFA0009FF200
000010000000
0002ED000000
0003FF100000
00008B000000
000043000000
ENDCHAR
STARTCHAR rcommaaccent
ENCODING 343
SWIDTH 414 0
DWIDTH 7 0
BBX 8 15 0 -5
BITMAP
04015661
1F8EFFF4
1FFFFFF4
1FFD3000
1FF60000
1FF50000
1FF50000
1FF50000
1FF50000
1FF50000
00100000
1DE20000
1EF30000
05E00000
02400000
ENDCHAR
STARTCHAR Rcaron
ENCODING 344
SWIDTH 651 0
DWIDTH 12 0
BBX 11 17 1 0
BITMAP
000702500000
005FBDE10000
0007FF400000
000064000000
899998610000
CFFFFFFE5000
CFFEEFFFF400
CFA0005FFC00
CFA00008FF20
CFA00005FF30
CFA00008FF10
CFA0017FFB00
CFFFFFFFF300
CFFFFFFF3000
CFD77AFF3000
CFA001EFA000
CFA0009FF200
ENDCHAR
STARTCHAR rcaron
ENCODING 345
SWIDTH 414 0
DWIDTH 7 0
BBX 8 14 0 0
BITMAP
01603300
07FAED00
009FE300
00073000
04015661
1F8EFFF4
1FFFFFF4
1FFD3000
1FF60000
1FF50000
1FF50000
1FF50000
1FF50000
1FF50000
ENDCHAR
STARTCHAR Sacute
ENCODING 346
SWIDTH 610 0
DWIDTH 11 0
BBX 11 18 0 0
BITMAP
000000140000
000001BF3000
00001CFE5000
00000BA20000
000000000000
002899999900
06FFFFFFFF00
2FFFEEEEEE00
7FF300000000
8FF100000000
4FFC98872000
0AFFFFFFE500
007DFFFFFE10
00000005FF60
00000001FF70
0788888CFF40
0DFFFFFFFA00
0DFFFFFE7000
ENDCHAR
STARTCHAR sacute
ENCODING 347
SWIDTH 523 0
DWIDTH 9 0
BBX 9 14 0 0
BITMAP
0000005000
000008F800
00008FF900
00007D4000
0025666630
07FFFFFF70
2FFFFFFF70
5FF2000000
3FFDCCB600
0AFFFFFF80
005899CFE0
266666AFE0
6FFFFFFF90
6FFFFFE910
ENDCHAR
STARTCHAR Scircumflex
ENCODING 348
SWIDTH 610 0
DWIDTH 11 0
BBX 11 17 0 0
BITMAP
000004000000
00009F900000
0009FDF90000
000490940000
002899999900
06FFFFFFFF00
2FFFEEEEEE00
7FF300000000
8FF100000000
4FFC98872000
0AFFFFFFE500
007DFFFFFE10
00000005FF60
00000001FF70
0788888CFF40
0DFFFFFFFA00
0DFFFFFE7000
ENDCHAR
STARTCHAR scircumflex
ENCODING 349
SWIDTH 523 0
DWIDTH 9 0
BBX 9 14 0 0
BITMAP
0000400000
0006FB1000
006FDFC000
002A167000
0025666630
07FFFFFF70
2FFFFFFF70
5FF2000000
3FFDCCB600
0AFFFFFF80
005899CFE0
266666AFE0
6FFFFFFF90
6FFFFFE910
ENDCHAR
STARTCHAR Scedilla
ENCODING 350
SWIDTH 610 0
DWIDTH 11 0
BBX 11 17 0 -4
BITMAP
002899999900
06FFFFFFFF00
2FFFEEEEEE00
7FF300000000
8FF100000000
4FFC98872000
0AFFFFFFE500
007DFFFFFE10
00000005FF60
00000001FF70
0788888CFF40
0DFFFFFFFA00
0DFFFFFE7000
00001E400000
00003CF20000
0001BBF40000
0002DFB00000
ENDCHAR
STARTCHAR scedilla
ENCODING 351
SWIDTH 523 0
DWIDTH 9 0
BBX 9 14 0 -4
BITMAP
0025666630
07FFFFFF70
2FFFFFFF70
5FF2000000
3FFDCCB600
0AFFFFFF80
005899CFE0
266666AFE0
6FFFFFFF90
6FFFFFE910
0000C70000
0001BF5000
000B9F8000
001BFD2000
ENDCHAR
STARTCHAR Scaron
ENCODING 352
SWIDTH 610 0
DWIDTH 11 0
BBX 11 17 0 0
BITMAP
000250510000
000BFAF90000
0001CFC10000
000018100000
002899999900
06FFFFFFFF00
2FFFEEEEEE00
7FF300000000
8FF100000000
4FFC98872000
0AFFFFFFE500
007DFFFFFE10
00000005FF60
00000001FF70
0788888CFF40
0DFFFFFFFA00
0DFFFFFE7000
ENDCHAR
STARTCHAR scaron
ENCODING 353
SWIDTH 523 0
DWIDTH 9 0
BBX 9 14 0 0
BITMAP
0006115000
004FCDF200
0007FF5000
0000550000
0025666630
07FFFFFF70
2FFFFFFF70
5FF2000000
3FFDCCB600
0AFFFFFF80
005899CFE0
266666AFE0
6FFFFFFF90
6FFFFFE910
ENDCHAR
STARTCHAR Tcommaaccent
ENCODING 354
SWIDTH 578 0
DWIDTH 10 0
BBX 11 18 0 -5
BITMAP
899999999920
DFFFFFFFFF40
CEEEFFEEEE30
0001FF700000
0001FF700000
0001FF700000
0001FF700000
0001FF700000
0001FF700000
0001FF700000
0001FF700000
0001FF700000
0001FF700000
000001000000
0000CF300000
0000DF500000
00003F200000
000025000000
ENDCHAR
STARTCHAR tcommaaccent
ENCODING 355
SWIDTH 437 0
DWIDTH 8 0
BBX 8 19 0 -5
BITMAP
01220000
09FC0000
09FC0000
09FC0000
4BFD6663
BFFFFFF7
BFFFFFF7
09FC0000
09FC0000
09FC0000
07FE1000
03FFC663
008FFFF7
0005CFF7
00010000
002ED100
002FF200
0006D000
00043000
ENDCHAR
STARTCHAR Tcaron
ENCODING 356
SWIDTH 578 0
DWIDTH 10 0
BBX 11 17 0 0
BITMAP
000520600000
001EEBF50000
0004EF900000
000037000000
899999999920
DFFFFFFFFF40
CEEEFFEEEE30
0001FF700000
0001FF700000
0001FF700000
0001FF700000
0001FF700000
0001FF700000
0001FF700000
0001FF700000
0001FF700000
0001FF700000
ENDCHAR
STARTCHAR tcaron
ENCODING 357
SWIDTH 570 0
DWIDTH 10 0
BBX 11 14 0 0
BITMAP
012200000000
09FC00006700
09FC0001FF30
09FC00009F20
4BFD66635B00
BFFFFFF70000
BFFFFFF70000
09FC00000000
09FC00000000
09FC00000000
07FE10000000
03FFC6630000
008FFFF70000
0005CFF70000
ENDCHAR
STARTCHAR Tbar
ENCODING 358
SWIDTH 578 0
DWIDTH 10 0
BBX 11 13 0 0
BITMAP
899999999920
DFFFFFFFFF40
CEEEFFEEEE30
0001FF700000
0001FF700000
0001FF700000
0049FFB70000
008FFFFE0000
006DFFEB0000
0001FF700000
0001FF700000
0001FF700000
0001FF700000
ENDCHAR
STARTCHAR tbar
ENCODING 359
SWIDTH 437 0
DWIDTH 8 0
BBX 8 14 0 0
BITMAP
01220000
09FC0000
09FC0000
09FC0000
4BFD6663
BFFFFFF7
BFFFFFF7
09FC0000
BFFFFB00
BFFFFB00
29FF4200
03FFC663
007FFFF7
0005CFF7
ENDCHAR
STARTCHAR Utilde
ENCODING 360
SWIDTH 673 0
DWIDTH 12 0
BBX 11 17 1 0
BITMAP
000540350000
009FF9DE0000
00CF9FFB0000
006804720000
995000049910
FF800006FF20
FF800006FF20
FF800006FF20
FF800006FF20
FF800006FF20
FF800006FF20
FF800006FF20
EFA00008FF10
BFE3002EFD00
4FFE99EFF600
07FFFFFF9000
004BEEC50000
ENDCHAR
STARTCHAR utilde
ENCODING 361
SWIDTH 562 0
DWIDTH 10 0
BBX 10 15 0 -1
BITMAP
0005404500
009FF9DE00
00CF9FFB00
0068047100
1661001661
3FF3003FF3
3FF3003FF3
3FF3003FF3
3FF3003FF3
3FF3003FF3
2FF5006FF3
0DFD55EFF3
04FFFFFFF3
005DFFC3B3
0000220000
ENDCHAR
STARTCHAR Umacron
ENCODING 362
SWIDTH 673 0
DWIDTH 12 0
BBX 11 16 1 0
BITMAP
001777720000
003FFFF40000
001555510000
995000049910
FF800006FF20
FF800006FF20
FF800006FF20
FF800006FF20
FF800006FF20
FF800006FF20
FF800006FF20
EFA00008FF10
BFE3002EFD00
4FFE99EFF600
07FFFFFF9000
004BEEC50000
ENDCHAR
STARTCHAR umacron
ENCODING 363
SWIDTH 562 0
DWIDTH 10 0
BBX 10 14 0 -1
BITMAP
0017777200
003FFFF400
0015555100
1661001661
3FF3003FF3
3FF3003FF3
3FF3003FF3
3FF3003FF3
3FF3003FF3
2FF5006FF3
0DFD55EFF3
04FFFFFFF3
005DFFC3B3
0000220000
ENDCHAR
STARTCHAR Ubreve
ENCODING 364
SWIDTH 673 0
DWIDTH 12 0
BBX 11 16 1 0
BITMAP
000222300000
000CC9F10000
0007FFC00000
995034049910
FF800006FF20
FF800006FF20
FF800006FF20
FF800006FF20
FF800006FF20
FF800006FF20
FF800006FF20
EFA00008FF10
BFE3002EFD00
4FFE99EFF600
07FFFFFF9000
004BEEC50000
ENDCHAR
STARTCHAR ubreve
ENCODING 365
SWIDTH 562 0
DWIDTH 10 0
BBX 10 14 0 -1
BITMAP
0003223000
000EBAE000
0009FFA000
1661341661
3FF3003FF3
3FF3003FF3
3FF3003FF3
3FF3003FF3
3FF3003FF3
2FF5006FF3
0DFD55EFF3
04FFFFFFF3
005DFFC3B3
0000220000
ENDCHAR
STARTCHAR Uring
ENCODING 366
SWIDTH 673 0
DWIDTH 12 0
BBX 11 17 1 0
BITMAP
000199100000
0008CBA00000
0008CBA00000
00019A200000
995000049910
FF800006FF20
FF800006FF20
FF800006FF20
FF800006FF20
FF800006FF20
FF800006FF20
FF800006FF20
EFA00008FF10
BFE3002EFD00
4FFE99EFF600
07FFFFFF9000
004BEEC50000
ENDCHAR
STARTCHAR uring
ENCODING 367
SWIDTH 562 0
DWIDTH 10 0
BBX 10 15 0 -1
BITMAP
0001991000
0008CBA000
0009CBA000
00019A2000
1661001661
3FF3003FF3
3FF3003FF3
3FF3003FF3
3FF3003FF3
3FF3003FF3
2FF5006FF3
0DFD55EFF3
04FFFFFFF3
005DFFC3B3
0000220000
ENDCHAR
STARTCHAR Uhungarumlaut
ENCODING 368
SWIDTH 673 0
DWIDTH 12 0
BBX 11 18 1 0
BITMAP
000030000000
0002EB1B5000
001CFC9FF200
004FB4FE5000
000400930000
995000049910
FF800006FF20
FF800006FF20
FF800006FF20
FF800006FF20
FF800006FF20
FF800006FF20
FF800006FF20
EFA00008FF10
BFE3002EFD00
4FFE99EFF600
07FFFFFF9000
004BEEC50000
ENDCHAR
STARTCHAR uhungarumlaut
ENCODING 369
SWIDTH 562 0
DWIDTH 10 0
BBX 10 16 0 -1
BITMAP
0000300000
0002EB1B50
001CFC9FF2
004FB4FE50
0004009300
1661001661
3FF3003FF3
3FF3003FF3
3FF3003FF3
3FF3003FF3
3FF3003FF3
2FF5006FF3
0DFD55EFF3
04FFFFFFF3
005DFFC3B3
0000220000
ENDCHAR
STARTCHAR Uogonek
ENCODING 370
SWIDTH 673 0
DWIDTH 12 0
BBX 11 17 1 -4
BITMAP
995000049910
FF800006FF20
FF800006FF20
FF800006FF20
FF800006FF20
FF800006FF20
FF800006FF20
FF800006FF20
EFA00008FF10
BFE3002EFC00
3FFE99EFF600
07FFFFFF9000
004BFEC50000
0007E1000000
000DDA300000
0008FF700000
000021000000
ENDCHAR
STARTCHAR uogonek
ENCODING 371
SWIDTH 562 0
DWIDTH 10 0
BBX 11 14 0 -4
BITMAP
166100166100
3FF3003FF300
3FF3003FF300
3FF3003FF300
3FF3003FF300
3FF3003FF300
2FF5006FF300
0DFD55EFF300
04FFFFFFF300
005DFFC3D300
0000220AD000
0000001FCA10
0000000BFE50
000000002000
ENDCHAR
STARTCHAR Wcircumflex
ENCODING 372
SWIDTH 819 0
DWIDTH 15 0
BBX 13 18 1 -1
BITMAP
00000040000000
00001BF7000000
0000BFDF700000
0000571A300000
89600896008960
EF900DFA00DFA0
EF900DFA00DFA0
EF900DFA00DFA0
EF900DFA00DFA0
EF900DFA00DFA0
EF900DFA00DFA0
EF900DFA00DFA0
EF900DFA00DFA0
EFA00EFA00DFA0
BFE79FFF79FF70
3FFFFFFFFFFD10
04DFFB6DFFC200
00021000220000
ENDCHAR
STARTCHAR wcircumflex
ENCODING 373
SWIDTH 756 0
DWIDTH 14 0
BBX 13 15 0 -1
BITMAP
00000041000000
000005FC100000
00005FEFD10000
00001A25800000
16610266003650
3FF306FF009FC0
3FF306FF009FC0
3FF306FF009FC0
3FF306FF009FC0
3FF306FF009FC0
2FF406FF009FC0
1FFA4CFF85EFA0
08FFFFFFFFFF30
008FFE7AFFD400
00012000120000
ENDCHAR
STARTCHAR Ycircumflex
ENCODING 374
SWIDTH 620 0
DWIDTH 11 0
BBX 11 17 0 0
BITMAP
000004000000
00008FA00000
0008FDFA0000
000390850000
499100008960
7FF10000DF90
7FF10000DF90
7FF10000DF90
7FF20000EF90
4FF70005FF60
0CFF958FFE10
03EFFFFFF500
003BFFFC4000
0000AFD00000
0000AFD00000
0000AFD00000
0000AFD00000
ENDCHAR
STARTCHAR ycircumflex
ENCODING 375
SWIDTH 562 0
DWIDTH 10 0
BBX 10 18 0 -4
BITMAP
0000230000
0003DE3000
002EEEE300
000942A000
1661001661
3FF3003FF3
3FF3003FF3
3FF3003FF3
3FF3003FF3
3FF3003FF3
2FF5006FF3
0DFD55EFF3
04FFFFFFF3
005DFFEFF2
000023DFD0
000ADFFF50
000CFFE600
0007972000
ENDCHAR
STARTCHAR Ydieresis
ENCODING 376
SWIDTH 620 0
DWIDTH 11 0
BBX 11 16 0 0
BITMAP
000980691000
001FF1DF3000
000540360000
499100008960
7FF10000DF90
7FF10000DF90
7FF10000DF90
7FF20000EF90
4FF70005FF60
0CFF958FFE10
03EFFFFFF500
003BFFFC4000
0000AFD00000
0000AFD00000
0000AFD00000
0000AFD00000
ENDCHAR
STARTCHAR Zacute
ENCODING 377
SWIDTH 586 0
DWIDTH 11 0
BBX 11 17 0 0
BITMAP
000000230000
000002DD1000
00002EFD3000
00001D810000
59999A999900
9FFFFFFFF900
8EEEEEFFE100
000008FF8000
00001EFE1000
00009FF70000
0002FFD00000
000AFF600000
003FFD000000
00BFF5000000
04FFF8888810
0CFFFFFFFF30
5FFFFFFFFF30
ENDCHAR
STARTCHAR zacute
ENCODING 378
SWIDTH 481 0
DWIDTH 9 0
BBX 9 14 0 0
BITMAP
0000014000
00002DE200
0002DFE400
0001D91000
3666666610
9FFFFFFB00
9FFFFFF300
0000DF9000
0007FE2000
001EF70000
009FD10000
03FFA66620
0BFFFFFF40
5FFFFFFF40
ENDCHAR
STARTCHAR Zdotaccent
ENCODING 379
SWIDTH 586 0
DWIDTH 11 0
BBX 11 16 0 0
BITMAP
00007D200000
0000BF500000
000014000000
599999999900
9FFFFFFFF900
8EEEEEFFE100
000008FF8000
00001EFE1000
00009FF70000
0002FFD00000
000AFF600000
003FFD000000
00BFF5000000
04FFF8888810
0CFFFFFFFF30
5FFFFFFFFF30
ENDCHAR
STARTCHAR zdotaccent
ENCODING 380
SWIDTH 481 0
DWIDTH 9 0
BBX 9 13 0 0
BITMAP
0007D30000
000AF50000
0001400000
3666666610
9FFFFFFB00
9FFFFFF300
0000DF9000
0007FE2000
001EF70000
009FD10000
03FFA66620
0BFFFFFF40
5FFFFFFF40
ENDCHAR
STARTCHAR Zcaron
ENCODING 381
SWIDTH 586 0
DWIDTH 11 0
BBX 11 17 0 0
BITMAP
000430600000
000DEAF70000
0003DFA00000
000028000000
599999999900
9FFFFFFFF900
8EEEEEFFE100
000008FF8000
00001EFE1000
00009FF70000
0002FFD00000
000AFF600000
003FFD000000
00BFF5000000
04FFF8888810
0CFFFFFFFF30
5FFFFFFFFF30
ENDCHAR
STARTCHAR zcaron
ENCODING 382
SWIDTH 481 0
DWIDTH 9 0
BBX 9 14 0 0
BITMAP
0043060000
00DEAF7000
002DFA0000
0001800000
3666666610
9FFFFFFB00
9FFFFFF300
0000DF9000
0007FE2000
001EF70000
009FD10000
03FFA66620
0BFFFFFF40
5FFFFFFF40
ENDCHAR
STARTCHAR AEacute
ENCODING 508
SWIDTH 988 0
DWIDTH 18 0
BBX 17 17 1 0
BITMAP
000000000050000000
000000000AF5000000
00000000BFF7000000
000000009B20000000
00058999A999999920
03DFFFFFFFFFFFFF30
1EFFFEEEFFEEEEEE30
8FF81007FF10000000
DFC00007FF20000000
EF800007FF98882000
FF800007FFFFFF4000
FF800007FFFFFF3000
FFFFFFFFFF20000000
FFFFFFFFFF20000000
FFC7777BFF98888820
FF800007FFFFFFFF30
FF800007FFFFFFFF30
ENDCHAR
STARTCHAR aeacute
ENCODING 509
SWIDTH 976 0
DWIDTH 18 0
BBX 18 15 0 -1
BITMAP
000000000023000000
0000000002DE100000
000000002EFD400000
000000001D81000000
0017BB810516AB9300
02DFFFFE8FDFFFFF80
0CFFCBFFFFFFDBFFE1
5FF7003EFFF909FF40
8FE00008FFF15FF700
8FE00007FFF2EF9000
7FF3000CFFFDFB0500
2FFD65BFFFFFF59F90
07FFFFFFEFFFFFFFD1
006DFFE71D4CFFF910
000022000000121000
ENDCHAR
STARTCHAR Oslashacute
ENCODING 510
SWIDTH 777 0
DWIDTH 14 0
BBX 14 19 0 -1
BITMAP
00000000500000
00000007F80000
0000008FF90000
0000007D400000
00000000000000
000038AB838950
001AFFFFFFFE10
01CFFFCCFFFD10
09FFB100CFFF90
1FFB0009FCBFF1
5FF3005FE23FF5
7FF002EF501FF7
7FF20CF9001FF6
4FF78FD1007FF4
0DFEFF3003EFD0
04FFFC559FFF40
00CFFFFFFFF600
07FEBFFFFB3000
00000133100000
ENDCHAR
STARTCHAR oslashacute
ENCODING 511
SWIDTH 579 0
DWIDTH 10 0
BBX 10 16 0 -1
BITMAP
0000002300
000003ED10
00003EFD30
00002E8000
0000000000
0016BB9687
02DFFFFFF4
0CFFCBFFF3
5FF70AFFFB
8FE06FEAFE
9FD3FF47FF
7FFDF80BFC
1EFFD5AFF7
09FFFFFFB0
3FFDFFE810
0000120000
ENDCHAR
STARTCHAR dotlessj
ENCODING 567
SWIDTH 237 0
DWIDTH 4 0
BBX 7 14 -3 -4
BITMAP
00006620
0001FF60
0001FF60
0001FF60
0001FF60
0001FF60
0001FF60
0001FF60
0001FF60
0003FF40
001CFE10
8CFFF700
AFFF8000
69720000
ENDCHAR
STARTCHAR circumflex
ENCODING 710
SWIDTH 267 0
DWIDTH 5 0
BBX 5 4 0 9
BITMAP
004000
0AF700
AFDF80
580A30
ENDCHAR
STARTCHAR caron
ENCODING 711
SWIDTH 267 0
DWIDTH 5 0
BBX 5 4 0 9
BITMAP
340510
CFAF90
2DFB10
018100
ENDCHAR
STARTCHAR breve
ENCODING 728
SWIDTH 220 0
DWIDTH 4 0
BBX 4 4 0 9
BITMAP
3222
EBBE
9FFA
0340
ENDCHAR
STARTCHAR dotaccent
ENCODING 729
SWIDTH 125 0
DWIDTH 2 0
BBX 3 3 0 9
BITMAP
9C10
EF20
2300
ENDCHAR
STARTCHAR ring
ENCODING 730
SWIDTH 192 0
DWIDTH 3 0
BBX 4 4 0 9
BITMAP
3A70
DAE5
D9E5
3A80
ENDCHAR
STARTCHAR ogonek
ENCODING 731
SWIDTH 212 0
DWIDTH 4 0
BBX 4 5 0 -4
BITMAP
0640
8E10
EDA2
9FF6
0210
ENDCHAR
STARTCHAR tilde
ENCODING 732
SWIDTH 321 0
DWIDTH 6 0
BBX 6 4 0 9
BITMAP
153044
CFF7EC
FEAFF9
770571
ENDCHAR
STARTCHAR hungarumlaut
ENCODING 733
SWIDTH 384 0
DWIDTH 7 0
BBX 7 5 0 9
BITMAP
00300000
09F54B10
5FF8EFA0
BE5BFB10
13049000
ENDCHAR
STARTCHAR uni0312
ENCODING 786
SWIDTH 192 0
DWIDTH 3 0
BBX 3 5 0 9
BITMAP
0200
1E20
6F90
6FD0
0520
ENDCHAR
STARTCHAR uni0315
ENCODING 789
SWIDTH 132 0
DWIDTH 2 0
BBX 3 4 0 9
BITMAP
5800
EF50
7F40
4C00
ENDCHAR
STARTCHAR uni0326
ENCODING 806
SWIDTH 193 0
DWIDTH 3 0
BBX 3 5 0 -5
BITMAP
0100
4FB0
5FE0
0AA0
0520
ENDCHAR
STARTCHAR pi
ENCODING 960
SWIDTH 555 0
DWIDTH 10 0
BBX 10 10 0 0
BITMAP
4666666664
AFFFFFFFFA
AFFFFFFFFA
03FF33FF30
03FF33FF30
03FF33FF30
03FF33FF30
03FF33FF30
03FF33FF30
03FF33FF30
ENDCHAR
STARTCHAR Wgrave
ENCODING 7808
SWIDTH 819 0
DWIDTH 15 0
BBX 13 18 1 -1
BITMAP
00005000000000
0006F900000000
0008FFA0000000
00003C80000000
89600896008960
EF900DFA00DFA0
EF900DFA00DFA0
EF900DFA00DFA0
EF900DFA00DFA0
EF900DFA00DFA0
EF900DFA00DFA0
EF900DFA00DFA0
EF900DFA00DFA0
EFA00EFA00DFA0
BFE79FFF79FF70
3FFFFFFFFFFD10
04DFFB6DFFC200
00021000220000
ENDCHAR
STARTCHAR wgrave
ENCODING 7809
SWIDTH 756 0
DWIDTH 14 0
BBX 13 15 0 -1
BITMAP
00004100000000
0003EC10000000
0005EFC1000000
00001AC0000000
16610266003650
3FF306FF009FC0
3FF306FF009FC0
3FF306FF009FC0
3FF306FF009FC0
3FF306FF009FC0
2FF406FF009FC0
1FFA4CFF85EFA0
08FFFFFFFFFF30
008FFE7AFFD400
00012000120000
ENDCHAR
STARTCHAR Wacute
ENCODING 7810
SWIDTH 819 0
DWIDTH 15 0
BBX 13 18 1 -1
BITMAP
00000001400000
0000002DE20000
000002DFE40000
000001D9100000
896008A6008960
EF900DFA00DFA0
EF900DFA00DFA0
EF900DFA00DFA0
EF900DFA00DFA0
EF900DFA00DFA0
EF900DFA00DFA0
EF900DFA00DFA0
EF900DFA00DFA0
EFA00EFA00DFA0
BFE79FFF79FF70
3FFFFFFFFFFD10
04DFFB6DFFC200
00021000220000
ENDCHAR
STARTCHAR wacute
ENCODING 7811
SWIDTH 756 0
DWIDTH 14 0
BBX 13 15 0 -1
BITMAP
00000000410000
00000005FB0000
0000006FFB1000
0000004E600000
16610266003650
3FF306FF009FC0
3FF306FF009FC0
3FF306FF009FC0
3FF306FF009FC0
3FF306FF009FC0
2FF406FF009FC0
1FFA4CFF85EFA0
08FFFFFFFFFF30
008FFE7AFFD400
00012000120000
ENDCHAR
STARTCHAR Wdieresis
ENCODING 7812
SWIDTH 819 0
DWIDTH 15 0
BBX 13 17 1 -1
BITMAP
0001A608800000
0004FD1FF00000
00006305400000
89600896008960
EF900DFA00DFA0
EF900DFA00DFA0
EF900DFA00DFA0
EF900DFA00DFA0
EF900DFA00DFA0
EF900DFA00DFA0
EF900DFA00DFA0
EF900DFA00DFA0
EFA00EFA00DFA0
BFE79FFF79FF70
3FFFFFFFFFFD10
04DFFB6DFFC200
00021000220000
ENDCHAR
STARTCHAR wdieresis
ENCODING 7813
SWIDTH 756 0
DWIDTH 14 0
BBX 13 14 0 -1
BITMAP
00006A13A20000
0000CF49F70000
00003602610000
16610266003650
3FF306FF009FC0
3FF306FF009FC0
3FF306FF009FC0
3FF306FF009FC0
3FF306FF009FC0
2FF406FF009FC0
1FFA4CFF85EFA0
08FFFFFFFFFF30
008FFE7AFFD400
00012000120000
ENDCHAR
STARTCHAR Ygrave
ENCODING 7922
SWIDTH 620 0
DWIDTH 11 0
BBX 11 17 0 0
BITMAP
000500000000
009F70000000
00AFF8000000
0004D6000000
499100008960
7FF10000DF90
7FF10000DF90
7FF10000DF90
7FF20000EF90
4FF70005FF60
0CFF958FFE10
03EFFFFFF500
003BFFFC4000
0000AFD00000
0000AFD00000
0000AFD00000
0000AFD00000
ENDCHAR
STARTCHAR ygrave
ENCODING 7923
SWIDTH 562 0
DWIDTH 10 0
BBX 10 18 0 -4
BITMAP
0041000000
03EC100000
05EFC10000
001AC00000
1661001661
3FF3003FF3
3FF3003FF3
3FF3003FF3
3FF3003FF3
3FF3003FF3
2FF5006FF3
0DFD55EFF3
04FFFFFFF3
005DFFEFF2
000023DFD0
000ADFFF50
000CFFE600
0007972000
ENDCHAR
STARTCHAR endash
ENCODING 8211
SWIDTH 418 0
DWIDTH 8 0
BBX 6 3 1 5
BITMAP
888884
EFFFF7
BCCCC6
ENDCHAR
STARTCHAR emdash
ENCODING 8212
SWIDTH 719 0
DWIDTH 13 0
BBX 11 3 1 5
BITMAP
888888888880
EFFFFFFFFFD0
BCCCCCCCCCB0
ENDCHAR
STARTCHAR quoteleft
ENCODING 8216
SWIDTH 246 0
DWIDTH 4 0
BBX 4 5 0 8
BITMAP
0250
0BC0
1FE4
3FFB
1CF6
ENDCHAR
STARTCHAR quoteright
ENCODING 8217
SWIDTH 245 0
DWIDTH 4 0
BBX 4 5 0 8
BITMAP
0681
3FF8
2FF9
05F5
05C0
ENDCHAR
STARTCHAR quotesinglbase
ENCODING 8218
SWIDTH 264 0
DWIDTH 5 0
BBX 4 6 0 -3
BITMAP
0251
1EFA
1FFD
04F9
03F3
0020
ENDCHAR
STARTCHAR quotedblleft
ENCODING 8220
SWIDTH 445 0
DWIDTH 8 0
BBX 8 5 0 8
BITMAP
02500520
0BC02F60
1FE47FB1
3FFB9FF5
1CF64ED1
ENDCHAR
STARTCHAR quotedblright
ENCODING 8221
SWIDTH 444 0
DWIDTH 8 0
BBX 8 5 0 8
BITMAP
06811850
3FF8AFF3
2FF98FF3
05F50BE0
05C00B60
ENDCHAR
STARTCHAR quotedblbase
ENCODING 8222
SWIDTH 463 0
DWIDTH 8 0
BBX 8 6 0 -3
BITMAP
02510430
1EFA5FF4
1FFD7FF6
04F91AF4
03F309C0
00200110
ENDCHAR
STARTCHAR dagger
ENCODING 8224
SWIDTH 434 0
DWIDTH 8 0
BBX 8 17 0 -2
BITMAP
00266100
005FF300
005FF300
127FF521
6FFFFFF4
6FFFFFF4
148FF641
005FF300
005FF300
005FF300
005FF300
005FF300
005FF300
005FF300
005FF300
005FF300
004CC200
ENDCHAR
STARTCHAR daggerdbl
ENCODING 8225
SWIDTH 452 0
DWIDTH 8 0
BBX 8 17 0 -2
BITMAP
00166200
003FF500
003FF500
125FF721
4FFFFFF6
4FFFFFF6
146FF741
003FF500
003FF500
003FF500
003FF500
4FFFFFF6
4FFFFFF6
278FF973
003FF500
003FF500
002CC400
ENDCHAR
STARTCHAR bullet
ENCODING 8226
SWIDTH 354 0
DWIDTH 6 0
BBX 4 5 1 4
BITMAP
0350
5FFB
AFFF
5FFB
0350
ENDCHAR
STARTCHAR ellipsis
ENCODING 8230
SWIDTH 789 0
DWIDTH 14 0
BBX 14 4 0 -1
BITMAP
02510034000430
1EFA03FF607FF2
1FFC04FF808FF4
04820068101860
ENDCHAR
STARTCHAR perthousand
ENCODING 8240
SWIDTH 998 0
DWIDTH 18 0
BBX 18 14 0 -1
BITMAP
02AB70004950000000
0DFEF500DE20000000
3F81FA06F800000000
4F60EB1EE100000000
3FA4FA7F6000000000
0BFFF5ED0000000000
016839F51200002100
00002FC7FFC11CFF70
0000AF5FDAF77FACF2
0004FA5F60FBAF06F5
000CF24F60FBAF06F5
005F901FDAF77FADF2
00DE1007FFC11CFF70
000000001200002100
ENDCHAR
STARTCHAR guilsinglleft
ENCODING 8249
SWIDTH 403 0
DWIDTH 7 0
BBX 7 9 0 0
BITMAP
0000A900
000AFF40
009FF600
09FF6000
5FFB0000
08FFA000
007FFB10
0006FF40
00005500
ENDCHAR
STARTCHAR guilsinglright
ENCODING 8250
SWIDTH 402 0
DWIDTH 7 0
BBX 7 9 0 0
BITMAP
06D10000
1EFD1000
03EFC100
003EFC10
0007FF90
006FFB10
07FFA000
1DFA0000
03800000
ENDCHAR
STARTCHAR fraction
ENCODING 8260
SWIDTH 477 0
DWIDTH 9 0
BBX 9 13 0 0
BITMAP
0000003950
000000CF20
000005F800
00000DE100
00007F7000
0001ED0000
0008F50000
002FC00000
00AF400000
03FB000000
0BF2000000
5F90000000
DE10000000
ENDCHAR
STARTCHAR Euro
ENCODING 8364
SWIDTH 806 0
DWIDTH 15 0
BBX 14 14 0 -1
BITMAP
00000016ABA710
000005EFFFFFE5
00006FFFDCEFF4
0002EFE5000590
04DEFFEDD00000
08FFFFFFC00000
046FFA55400000
0CCFFECC400000
3FFFFFFF200000
2668FFD6000030
0000BFFC646CE1
00001CFFFFFFF8
0000017EFFFE81
00000000343000
ENDCHAR
STARTCHAR trademark
ENCODING 8482
SWIDTH 606 0
DWIDTH 11 0
BBX 9 5 1 8
BITMAP
99963A7A30
4B83B7E7B0
0950C2D2C0
0950C2D2C0
0840A2C2B0
ENDCHAR
STARTCHAR partialdiff
ENCODING 8706
SWIDTH 609 0
DWIDTH 11 0
BBX 11 15 0 -1
BITMAP
00009BA10000
00005FF70000
00000BFE1000
000002FF8000
00049ADFE100
00AFFFFFF600
09FFDBEFFB00
1FFA001CFF00
4FF30005FF20
5FF20003FF30
3FF60008FF10
0CFF748FFA00
03EFFFFFE200
003BFFFA2000
000012100000
ENDCHAR
STARTCHAR product
ENCODING 8719
SWIDTH 632 0
DWIDTH 11 0
BBX 11 13 0 0
BITMAP
399999999970
5FFFFFFFFFB0
5EFFFEEFFEA0
00BFC06FF200
00BFC06FF200
00BFC06FF200
00BFC06FF200
00BFC06FF200
00BFC06FF200
00BFC06FF200
00BFC06FF200
00BFC06FF200
00BFC06FF200
ENDCHAR
STARTCHAR minus
ENCODING 8722
SWIDTH 543 0
DWIDTH 10 0
BBX 8 3 1 5
BITMAP
78888885
CFFFFFF9
ACCCCCC7
ENDCHAR
STARTCHAR infinity
ENCODING 8734
SWIDTH 771 0
DWIDTH 14 0
BBX 14 9 0 1
BITMAP
006DFB23BEC400
06FFFFEEFFFF40
0EFC8FFFC9EFD0
3FF307FF106FF1
3FF303FF405FF1
0EFD8BFFD7DFD0
06FFFFEFFFFF50
006DFC34CFE600
00000000010000
ENDCHAR
STARTCHAR approxequal
ENCODING 8776
SWIDTH 476 0
DWIDTH 9 0
BBX 7 8 1 2
BITMAP
4CC45D50
CFFEDF60
DF5DFE20
46115200
5EE56E60
DFFFEF60
CF3BFE20
34103100
ENDCHAR
STARTCHAR notequal
ENCODING 8800
SWIDTH 512 0
DWIDTH 9 0
BBX 9 12 0 0
BITMAP
000006B700
00000DF500
15557FF610
2FFFFFFF40
2FFFFFFF40
0006FD0000
1BBEFEBB30
2FFFFFFF40
1ADFDAAA30
00DF500000
04FE000000
0243000000
ENDCHAR
STARTCHAR fi
ENCODING 64257
SWIDTH 650 0
DWIDTH 12 0
BBX 12 15 0 0
BITMAP
000000100000
0004CFF92840
006FFFF9DFF1
02EFD653DFF2
05FF20003940
4AFF66666650
9FFFFFFFFFC0
9FFFFFFFFFC0
07FF00009FC0
07FF00009FC0
07FF00009FC0
07FF00009FC0
07FF00009FC0
07FF00009FC0
07FF00009FC0
ENDCHAR
STARTCHAR fl
ENCODING 64258
SWIDTH 631 0
DWIDTH 11 0
BBX 11 15 0 0
BITMAP
000000111100
0004CFFFFF70
006FFFFFFF70
02EFD655FF70
05FF2000EF70
4AFF6660EF70
9FFFFFE0EF70
9FFFFFD0EF70
07FF0000EF70
07FF0000EF70
07FF0000EF70
07FF0000EF70
07FF0000EF70
07FF0000EF70
07FF0000EF70
ENDCHAR
STARTCHAR .notdef
ENCODING -1
SWIDTH 279 0
DWIDTH 5 0
BBX 1 1 0 0
BITMAP
00
ENDCHAR
STARTCHAR .null
ENCODING -1
SWIDTH 0 0
DWIDTH 0 0
BBX 1 1 0 0
BITMAP
00
ENDCHAR
STARTCHAR nonmarkingreturn
ENCODING -1
SWIDTH 279 0
DWIDTH 5 0
BBX 1 1 0 0
BITMAP
00
ENDCHAR
ENDFONT
